RedHatText-Medium.ufo
<glyph name="exclam" format="2">
  <advance width="245"/>
  <unicode hex="0021"/>
  <outline>
    <contour>
      <point x="80" y="215" type="line"/>
      <point x="165" y="215" type="line"/>
      <point x="178" y="730" type="line"/>
      <point x="67" y="730" type="line"/>
    </contour>
    <contour>
      <point x="122" y="-9" type="curve" smooth="yes"/>
      <point x="160" y="-9"/>
      <point x="191" y="22"/>
      <point x="191" y="61" type="curve" smooth="yes"/>
      <point x="191" y="100"/>
      <point x="160" y="131"/>
      <point x="122" y="131" type="curve" smooth="yes"/>
      <point x="85" y="131"/>
      <point x="53" y="100"/>
      <point x="53" y="61" type="curve" smooth="yes"/>
      <point x="53" y="22"/>
      <point x="85" y="-9"/>
    </contour>
  </outline>
</glyph>
<glyph name="numbersign" format="2">
  <advance width="717"/>
  <unicode hex="0023"/>
  <outline>
    <contour>
      <point x="60" y="0" type="line"/>
      <point x="159" y="0" type="line"/>
      <point x="229" y="203" type="line"/>
      <point x="388" y="203" type="line"/>
      <point x="318" y="0" type="line"/>
      <point x="416" y="0" type="line"/>
      <point x="486" y="203" type="line"/>
      <point x="625" y="203" type="line"/>
      <point x="625" y="286" type="line"/>
      <point x="514" y="286" type="line"/>
      <point x="558" y="414" type="line"/>
      <point x="673" y="414" type="line"/>
      <point x="673" y="497" type="line"/>
      <point x="586" y="497" type="line"/>
      <point x="656" y="700" type="line"/>
      <point x="558" y="700" type="line"/>
      <point x="488" y="497" type="line"/>
      <point x="329" y="497" type="line"/>
      <point x="399" y="700" type="line"/>
      <point x="300" y="700" type="line"/>
      <point x="230" y="497" type="line"/>
      <point x="90" y="497" type="line"/>
      <point x="90" y="414" type="line"/>
      <point x="202" y="414" type="line"/>
      <point x="158" y="286" type="line"/>
      <point x="43" y="286" type="line"/>
      <point x="43" y="203" type="line"/>
      <point x="130" y="203" type="line"/>
    </contour>
    <contour>
      <point x="257" y="286" type="line"/>
      <point x="301" y="414" type="line"/>
      <point x="460" y="414" type="line"/>
      <point x="416" y="286" type="line"/>
    </contour>
  </outline>
</glyph>
<glyph name="dollar" format="2">
  <advance width="570"/>
  <unicode hex="0024"/>
  <outline>
    <contour>
      <point x="254" y="-75" type="line"/>
      <point x="311" y="-75" type="line"/>
      <point x="311" y="21" type="line"/>
      <point x="443" y="31"/>
      <point x="527" y="106"/>
      <point x="527" y="217" type="curve"/>
      <point x="527" y="302"/>
      <point x="480" y="353"/>
      <point x="374" y="382" type="curve" smooth="yes"/>
      <point x="311" y="399" type="line"/>
      <point x="311" y="584" type="line"/>
      <point x="363" y="576"/>
      <point x="414" y="555"/>
      <point x="462" y="520" type="curve"/>
      <point x="510" y="603" type="line"/>
      <point x="452" y="646"/>
      <point x="383" y="672"/>
      <point x="311" y="679" type="curve"/>
      <point x="311" y="759" type="line"/>
      <point x="254" y="759" type="line"/>
      <point x="254" y="681" type="line"/>
      <point x="123" y="674"/>
      <point x="43" y="604"/>
      <point x="43" y="493" type="curve"/>
      <point x="43" y="408"/>
      <point x="92" y="353"/>
      <point x="191" y="326" type="curve" smooth="yes"/>
      <point x="254" y="309" type="line"/>
      <point x="254" y="115" type="line"/>
      <point x="196" y="122"/>
      <point x="139" y="145"/>
      <point x="85" y="182" type="curve"/>
      <point x="34" y="97" type="line"/>
      <point x="97" y="52"/>
      <point x="175" y="26"/>
      <point x="254" y="21" type="curve"/>
    </contour>
    <contour>
      <point x="233" y="418" type="line" smooth="yes"/>
      <point x="169" y="435"/>
      <point x="145" y="459"/>
      <point x="145" y="501" type="curve"/>
      <point x="145" y="550"/>
      <point x="187" y="584"/>
      <point x="254" y="588" type="curve"/>
      <point x="254" y="412" type="line"/>
    </contour>
    <contour>
      <point x="332" y="290" type="line" smooth="yes"/>
      <point x="400" y="267"/>
      <point x="422" y="247"/>
      <point x="422" y="205" type="curve"/>
      <point x="422" y="155"/>
      <point x="380" y="120"/>
      <point x="311" y="114" type="curve"/>
      <point x="311" y="296" type="line"/>
    </contour>
  </outline>
</glyph>
<glyph name="ampersand" format="2">
  <advance width="681"/>
  <unicode hex="0026"/>
  <outline>
    <contour>
      <point x="658" y="63" type="line"/>
      <point x="624" y="88"/>
      <point x="588" y="118"/>
      <point x="550" y="150" type="curve"/>
      <point x="588" y="208"/>
      <point x="616" y="281"/>
      <point x="635" y="369" type="curve"/>
      <point x="535" y="385" type="line"/>
      <point x="523" y="320"/>
      <point x="502" y="263"/>
      <point x="475" y="216" type="curve"/>
      <point x="420" y="267"/>
      <point x="366" y="319"/>
      <point x="320" y="368" type="curve"/>
      <point x="371" y="399" type="line" smooth="yes"/>
      <point x="442" y="441"/>
      <point x="475" y="491"/>
      <point x="475" y="554" type="curve" smooth="yes"/>
      <point x="475" y="645"/>
      <point x="401" y="711"/>
      <point x="298" y="711" type="curve" smooth="yes"/>
      <point x="191" y="711"/>
      <point x="112" y="638"/>
      <point x="112" y="539" type="curve" smooth="yes"/>
      <point x="112" y="484"/>
      <point x="128" y="441"/>
      <point x="172" y="385" type="curve"/>
      <point x="167" y="382" type="line" smooth="yes"/>
      <point x="67" y="327"/>
      <point x="29" y="273"/>
      <point x="29" y="189" type="curve"/>
      <point x="29" y="70"/>
      <point x="126" y="-10"/>
      <point x="271" y="-10" type="curve" smooth="yes"/>
      <point x="354" y="-10"/>
      <point x="427" y="17"/>
      <point x="485" y="67" type="curve"/>
      <point x="521" y="37"/>
      <point x="556" y="9"/>
      <point x="591" y="-17" type="curve"/>
    </contour>
    <contour>
      <point x="215" y="541" type="curve" smooth="yes"/>
      <point x="215" y="590"/>
      <point x="248" y="625"/>
      <point x="295" y="625" type="curve" smooth="yes"/>
      <point x="338" y="625"/>
      <point x="372" y="593"/>
      <point x="372" y="550" type="curve" smooth="yes"/>
      <point x="372" y="514"/>
      <point x="353" y="486"/>
      <point x="312" y="461" type="curve" smooth="yes"/>
      <point x="265" y="433" type="line"/>
      <point x="227" y="479"/>
      <point x="215" y="508"/>
    </contour>
    <contour>
      <point x="135" y="196" type="curve"/>
      <point x="135" y="245"/>
      <point x="160" y="277"/>
      <point x="224" y="314" type="curve" smooth="yes"/>
      <point x="228" y="316" type="line"/>
      <point x="282" y="255"/>
      <point x="346" y="191"/>
      <point x="413" y="130" type="curve"/>
      <point x="374" y="97"/>
      <point x="329" y="81"/>
      <point x="278" y="81" type="curve" smooth="yes"/>
      <point x="191" y="81"/>
      <point x="135" y="126"/>
    </contour>
  </outline>
</glyph>
<glyph name="quotesingle" format="2">
  <advance width="249"/>
  <unicode hex="0027"/>
  <outline>
    <contour>
      <point x="85" y="489" type="line"/>
      <point x="164" y="489" type="line"/>
      <point x="179" y="750" type="line"/>
      <point x="71" y="750" type="line"/>
    </contour>
  </outline>
</glyph>
<glyph name="parenleft" format="2">
  <advance width="414"/>
  <unicode hex="0028"/>
  <outline>
    <contour>
      <point x="69" y="245" type="curve"/>
      <point x="69" y="40"/>
      <point x="154" y="-125"/>
      <point x="311" y="-222" type="curve"/>
      <point x="371" y="-149" type="line"/>
      <point x="242" y="-67"/>
      <point x="171" y="72"/>
      <point x="171" y="245" type="curve"/>
      <point x="171" y="417"/>
      <point x="242" y="557"/>
      <point x="371" y="639" type="curve"/>
      <point x="311" y="711" type="line"/>
      <point x="154" y="615"/>
      <point x="69" y="450"/>
    </contour>
  </outline>
</glyph>
<glyph name="asterisk" format="2">
  <advance width="472"/>
  <unicode hex="002A"/>
  <outline>
    <contour>
      <point x="374" y="381" type="line"/>
      <point x="415" y="445" type="line"/>
      <point x="303" y="514" type="line"/>
      <point x="414" y="583" type="line"/>
      <point x="373" y="646" type="line"/>
      <point x="271" y="579" type="line"/>
      <point x="273" y="700" type="line"/>
      <point x="200" y="700" type="line"/>
      <point x="201" y="578" type="line"/>
      <point x="99" y="646" type="line"/>
      <point x="59" y="583" type="line"/>
      <point x="170" y="514" type="line"/>
      <point x="58" y="445" type="line"/>
      <point x="98" y="381" type="line"/>
      <point x="201" y="449" type="line"/>
      <point x="200" y="325" type="line"/>
      <point x="273" y="325" type="line"/>
      <point x="271" y="449" type="line"/>
    </contour>
  </outline>
</glyph>
<glyph name="plus" format="2">
  <advance width="544"/>
  <unicode hex="002B"/>
  <outline>
    <contour>
      <point x="316" y="135" type="line"/>
      <point x="316" y="313" type="line"/>
      <point x="482" y="313" type="line"/>
      <point x="482" y="403" type="line"/>
      <point x="316" y="403" type="line"/>
      <point x="316" y="578" type="line"/>
      <point x="229" y="578" type="line"/>
      <point x="229" y="403" type="line"/>
      <point x="62" y="403" type="line"/>
      <point x="62" y="313" type="line"/>
      <point x="229" y="313" type="line"/>
      <point x="229" y="135" type="line"/>
    </contour>
  </outline>
</glyph>
<glyph name="comma" format="2">
  <advance width="245"/>
  <unicode hex="002C"/>
  <outline>
    <contour>
      <point x="82" y="98" type="line"/>
      <point x="15" y="-166" type="line"/>
      <point x="98" y="-166" type="line"/>
      <point x="196" y="98" type="line"/>
    </contour>
  </outline>
</glyph>
<glyph name="period" format="2">
  <advance width="245"/>
  <unicode hex="002E"/>
  <outline>
    <contour>
      <point x="122" y="137" type="curve" smooth="yes"/>
      <point x="84" y="137"/>
      <point x="52" y="104"/>
      <point x="52" y="64" type="curve" smooth="yes"/>
      <point x="52" y="23"/>
      <point x="84" y="-9"/>
      <point x="122" y="-9" type="curve" smooth="yes"/>
      <point x="160" y="-9"/>
      <point x="192" y="23"/>
      <point x="192" y="64" type="curve" smooth="yes"/>
      <point x="192" y="104"/>
      <point x="160" y="137"/>
    </contour>
  </outline>
</glyph>
<glyph name="three" format="2">
  <advance width="607"/>
  <unicode hex="0033"/>
  <outline>
    <contour>
      <point x="553" y="195" type="curve"/>
      <point x="553" y="274"/>
      <point x="490" y="336"/>
      <point x="395" y="355" type="curve"/>
      <point x="476" y="376"/>
      <point x="531" y="438"/>
      <point x="531" y="515" type="curve"/>
      <point x="531" y="628"/>
      <point x="431" y="711"/>
      <point x="292" y="711" type="curve"/>
      <point x="195" y="711"/>
      <point x="105" y="671"/>
      <point x="40" y="600" type="curve"/>
      <point x="114" y="531" type="line"/>
      <point x="172" y="592"/>
      <point x="218" y="614"/>
      <point x="288" y="614" type="curve"/>
      <point x="364" y="614"/>
      <point x="421" y="566"/>
      <point x="421" y="503" type="curve"/>
      <point x="421" y="439"/>
      <point x="377" y="398"/>
      <point x="310" y="398" type="curve"/>
      <point x="232" y="398" type="line"/>
      <point x="232" y="307" type="line"/>
      <point x="319" y="307" type="line"/>
      <point x="392" y="307"/>
      <point x="443" y="264"/>
      <point x="443" y="202" type="curve"/>
      <point x="443" y="133"/>
      <point x="381" y="86"/>
      <point x="291" y="86" type="curve"/>
      <point x="213" y="86"/>
      <point x="163" y="107"/>
      <point x="107" y="164" type="curve"/>
      <point x="33" y="95" type="line"/>
      <point x="96" y="28"/>
      <point x="189" y="-10"/>
      <point x="292" y="-10" type="curve"/>
      <point x="444" y="-10"/>
      <point x="553" y="76"/>
    </contour>
  </outline>
</glyph>
<glyph name="four" format="2">
  <advance width="651"/>
  <unicode hex="0034"/>
  <outline>
    <contour>
      <point x="525" y="700" type="line"/>
      <point x="401" y="700" type="line"/>
      <point x="40" y="262" type="line"/>
      <point x="40" y="173" type="line"/>
      <point x="416" y="173" type="line"/>
      <point x="416" y="0" type="line"/>
      <point x="525" y="0" type="line"/>
      <point x="525" y="173" type="line"/>
      <point x="615" y="173" type="line"/>
      <point x="615" y="267" type="line"/>
      <point x="525" y="267" type="line"/>
    </contour>
    <contour>
      <point x="157" y="267" type="line"/>
      <point x="416" y="583" type="line"/>
      <point x="416" y="267" type="line"/>
    </contour>
  </outline>
</glyph>
<glyph name="five" format="2">
  <advance width="591"/>
  <unicode hex="0035"/>
  <note>
Version created Sun Jan 27 17:40:50 2019
</note>
  <outline>
    <contour>
      <point x="66" y="338" type="line"/>
      <point x="142" y="315" type="line"/>
      <point x="191" y="340"/>
      <point x="234" y="352"/>
      <point x="281" y="352" type="curve" smooth="yes"/>
      <point x="370" y="352"/>
      <point x="433" y="298"/>
      <point x="433" y="221" type="curve" smooth="yes"/>
      <point x="433" y="139"/>
      <point x="373" y="84"/>
      <point x="284" y="84" type="curve" smooth="yes"/>
      <point x="215" y="84"/>
      <point x="160" y="106"/>
      <point x="100" y="159" type="curve"/>
      <point x="34" y="84" type="line"/>
      <point x="102" y="21"/>
      <point x="186" y="-11"/>
      <point x="280" y="-11" type="curve" smooth="yes"/>
      <point x="438" y="-11"/>
      <point x="545" y="85"/>
      <point x="545" y="226" type="curve" smooth="yes"/>
      <point x="545" y="353"/>
      <point x="451" y="438"/>
      <point x="312" y="438" type="curve" smooth="yes"/>
      <point x="260" y="438"/>
      <point x="213" y="427"/>
      <point x="166" y="403" type="curve"/>
      <point x="175" y="606" type="line"/>
      <point x="508" y="606" type="line"/>
      <point x="508" y="700" type="line"/>
      <point x="82" y="700" type="line"/>
    </contour>
  </outline>
</glyph>
<glyph name="six" format="2">
  <advance width="634"/>
  <unicode hex="0036"/>
  <outline>
    <contour>
      <point x="340" y="-9" type="curve"/>
      <point x="482" y="-9"/>
      <point x="586" y="88"/>
      <point x="586" y="221" type="curve" smooth="yes"/>
      <point x="586" y="346"/>
      <point x="489" y="436"/>
      <point x="352" y="436" type="curve"/>
      <point x="278" y="436"/>
      <point x="208" y="399"/>
      <point x="159" y="334" type="curve"/>
      <point x="161" y="510"/>
      <point x="237" y="612"/>
      <point x="367" y="612" type="curve"/>
      <point x="418" y="612"/>
      <point x="462" y="598"/>
      <point x="502" y="569" type="curve"/>
      <point x="562" y="650" type="line"/>
      <point x="515" y="687"/>
      <point x="443" y="710"/>
      <point x="376" y="710" type="curve"/>
      <point x="180" y="710"/>
      <point x="50" y="559"/>
      <point x="50" y="332" type="curve" smooth="yes"/>
      <point x="50" y="130"/>
      <point x="168" y="-9"/>
    </contour>
    <contour>
      <point x="335" y="349" type="curve"/>
      <point x="420" y="349"/>
      <point x="479" y="295"/>
      <point x="479" y="218" type="curve" smooth="yes"/>
      <point x="479" y="142"/>
      <point x="418" y="85"/>
      <point x="336" y="85" type="curve"/>
      <point x="247" y="85"/>
      <point x="181" y="156"/>
      <point x="164" y="265" type="curve"/>
      <point x="207" y="318"/>
      <point x="268" y="349"/>
    </contour>
  </outline>
</glyph>
<glyph name="seven" format="2">
  <advance width="585"/>
  <unicode hex="0037"/>
  <outline>
    <contour>
      <point x="108" y="0" type="line"/>
      <point x="236" y="0" type="line"/>
      <point x="553" y="618" type="line"/>
      <point x="553" y="700" type="line"/>
      <point x="32" y="700" type="line"/>
      <point x="32" y="603" type="line"/>
      <point x="433" y="603" type="line"/>
    </contour>
  </outline>
</glyph>
<glyph name="eight" format="2">
  <advance width="625"/>
  <unicode hex="0038"/>
  <note>
Version created Tue Sep 18 15:49:42 2018
</note>
  <outline>
    <contour>
      <point x="313" y="-11" type="curve"/>
      <point x="465" y="-11"/>
      <point x="573" y="74"/>
      <point x="573" y="193" type="curve" smooth="yes"/>
      <point x="573" y="274"/>
      <point x="511" y="341"/>
      <point x="422" y="364" type="curve"/>
      <point x="497" y="389"/>
      <point x="549" y="449"/>
      <point x="549" y="520" type="curve" smooth="yes"/>
      <point x="549" y="629"/>
      <point x="447" y="711"/>
      <point x="312" y="711" type="curve"/>
      <point x="177" y="711"/>
      <point x="76" y="629"/>
      <point x="76" y="520" type="curve" smooth="yes"/>
      <point x="76" y="449"/>
      <point x="128" y="389"/>
      <point x="204" y="364" type="curve"/>
      <point x="115" y="341"/>
      <point x="53" y="274"/>
      <point x="53" y="193" type="curve" smooth="yes"/>
      <point x="53" y="74"/>
      <point x="160" y="-11"/>
    </contour>
    <contour>
      <point x="313" y="405" type="curve"/>
      <point x="240" y="405"/>
      <point x="183" y="451"/>
      <point x="183" y="513" type="curve"/>
      <point x="183" y="575"/>
      <point x="239" y="622"/>
      <point x="313" y="622" type="curve"/>
      <point x="386" y="622"/>
      <point x="442" y="575"/>
      <point x="442" y="513" type="curve"/>
      <point x="442" y="451"/>
      <point x="385" y="405"/>
    </contour>
    <contour>
      <point x="313" y="80" type="curve"/>
      <point x="226" y="80"/>
      <point x="162" y="132"/>
      <point x="162" y="201" type="curve"/>
      <point x="162" y="269"/>
      <point x="226" y="320"/>
      <point x="313" y="320" type="curve"/>
      <point x="399" y="320"/>
      <point x="463" y="269"/>
      <point x="463" y="201" type="curve"/>
      <point x="463" y="132"/>
      <point x="399" y="80"/>
    </contour>
  </outline>
</glyph>
<glyph name="question" format="2">
  <advance width="523"/>
  <unicode hex="003F"/>
  <outline>
    <contour>
      <point x="364" y="351" type="line" smooth="yes"/>
      <point x="451" y="414"/>
      <point x="479" y="457"/>
      <point x="479" y="528" type="curve" smooth="yes"/>
      <point x="479" y="631"/>
      <point x="386" y="709"/>
      <point x="262" y="709" type="curve"/>
      <point x="160" y="709"/>
      <point x="73" y="656"/>
      <point x="27" y="568" type="curve"/>
      <point x="114" y="525" type="line"/>
      <point x="145" y="580"/>
      <point x="197" y="613"/>
      <point x="257" y="613" type="curve" smooth="yes"/>
      <point x="323" y="613"/>
      <point x="372" y="574"/>
      <point x="372" y="522" type="curve"/>
      <point x="372" y="488"/>
      <point x="354" y="462"/>
      <point x="309" y="427" type="curve" smooth="yes"/>
      <point x="263" y="392" type="line" smooth="yes"/>
      <point x="202" y="346"/>
      <point x="183" y="301"/>
      <point x="188" y="217" type="curve"/>
      <point x="281" y="217" type="line"/>
      <point x="278" y="269"/>
      <point x="292" y="299"/>
      <point x="335" y="330" type="curve" smooth="yes"/>
    </contour>
    <contour>
      <point x="235" y="131" type="curve" smooth="yes"/>
      <point x="197" y="131"/>
      <point x="166" y="100"/>
      <point x="166" y="61" type="curve" smooth="yes"/>
      <point x="166" y="22"/>
      <point x="197" y="-9"/>
      <point x="235" y="-9" type="curve" smooth="yes"/>
      <point x="273" y="-9"/>
      <point x="304" y="22"/>
      <point x="304" y="61" type="curve" smooth="yes"/>
      <point x="304" y="100"/>
      <point x="273" y="131"/>
    </contour>
  </outline>
</glyph>
<glyph name="at" format="2">
  <advance width="774"/>
  <unicode hex="0040"/>
  <outline>
    <contour>
      <point x="350" y="49" type="curve" smooth="yes"/>
      <point x="385" y="49"/>
      <point x="420" y="64"/>
      <point x="450" y="92" type="curve"/>
      <point x="468" y="66"/>
      <point x="501" y="51"/>
      <point x="545" y="51" type="curve" smooth="yes"/>
      <point x="646" y="51"/>
      <point x="720" y="144"/>
      <point x="720" y="273" type="curve" smooth="yes"/>
      <point x="720" y="447"/>
      <point x="581" y="579"/>
      <point x="400" y="579" type="curve"/>
      <point x="202" y="579"/>
      <point x="55" y="421"/>
      <point x="55" y="207" type="curve"/>
      <point x="55" y="5"/>
      <point x="202" y="-144"/>
      <point x="402" y="-144" type="curve"/>
      <point x="466" y="-144"/>
      <point x="526" y="-129"/>
      <point x="583" y="-100" type="curve"/>
      <point x="562" y="-49" type="line"/>
      <point x="515" y="-75"/>
      <point x="462" y="-88"/>
      <point x="404" y="-88" type="curve"/>
      <point x="234" y="-88"/>
      <point x="112" y="37"/>
      <point x="112" y="211" type="curve"/>
      <point x="112" y="389"/>
      <point x="237" y="526"/>
      <point x="398" y="526" type="curve"/>
      <point x="549" y="526"/>
      <point x="662" y="416"/>
      <point x="662" y="269" type="curve" smooth="yes"/>
      <point x="662" y="176"/>
      <point x="617" y="108"/>
      <point x="555" y="108" type="curve" smooth="yes"/>
      <point x="518" y="108"/>
      <point x="501" y="130"/>
      <point x="509" y="171" type="curve" smooth="yes"/>
      <point x="548" y="370" type="line"/>
      <point x="474" y="370" type="line"/>
      <point x="470" y="348" type="line"/>
      <point x="446" y="370"/>
      <point x="414" y="383"/>
      <point x="379" y="383" type="curve" smooth="yes"/>
      <point x="286" y="383"/>
      <point x="212" y="303"/>
      <point x="212" y="203" type="curve" smooth="yes"/>
      <point x="212" y="116"/>
      <point x="272" y="49"/>
    </contour>
    <contour>
      <point x="285" y="209" type="curve" smooth="yes"/>
      <point x="285" y="268"/>
      <point x="328" y="317"/>
      <point x="380" y="317" type="curve"/>
      <point x="413" y="317"/>
      <point x="440" y="303"/>
      <point x="456" y="278" type="curve"/>
      <point x="438" y="180" type="line" smooth="yes"/>
      <point x="435" y="166"/>
      <point x="434" y="153"/>
      <point x="435" y="142" type="curve"/>
      <point x="415" y="123"/>
      <point x="391" y="113"/>
      <point x="368" y="113" type="curve" smooth="yes"/>
      <point x="319" y="113"/>
      <point x="285" y="152"/>
    </contour>
  </outline>
</glyph>
<glyph name="A" format="2">
  <advance width="697"/>
  <unicode hex="0041"/>
  <anchor x="349" y="700" name="top"/>
  <anchor x="691" y="0" name="bottom"/>
  <outline>
    <contour>
      <point x="6" y="0" type="line"/>
      <point x="131" y="0" type="line"/>
      <point x="203" y="196" type="line"/>
      <point x="491" y="196" type="line"/>
      <point x="562" y="0" type="line"/>
      <point x="691" y="0" type="line"/>
      <point x="420" y="700" type="line"/>
      <point x="281" y="700" type="line"/>
    </contour>
    <contour>
      <point x="238" y="290" type="line"/>
      <point x="348" y="588" type="line"/>
      <point x="456" y="290" type="line"/>
    </contour>
  </outline>
</glyph>
<glyph name="B" format="2">
  <advance width="696"/>
  <unicode hex="0042"/>
  <outline>
    <contour>
      <point x="84" y="700" type="line"/>
      <point x="84" y="0" type="line"/>
      <point x="409" y="0" type="line"/>
      <point x="547" y="0"/>
      <point x="640" y="79"/>
      <point x="640" y="195" type="curve" smooth="yes"/>
      <point x="640" y="274"/>
      <point x="587" y="335"/>
      <point x="504" y="361" type="curve"/>
      <point x="572" y="389"/>
      <point x="616" y="446"/>
      <point x="616" y="516" type="curve" smooth="yes"/>
      <point x="616" y="626"/>
      <point x="527" y="700"/>
      <point x="395" y="700" type="curve"/>
    </contour>
    <contour>
      <point x="383" y="602" type="line"/>
      <point x="452" y="602"/>
      <point x="496" y="564"/>
      <point x="496" y="504" type="curve" smooth="yes"/>
      <point x="496" y="444"/>
      <point x="452" y="406"/>
      <point x="383" y="406" type="curve"/>
      <point x="204" y="406" type="line"/>
      <point x="204" y="602" type="line"/>
    </contour>
    <contour>
      <point x="395" y="98" type="curve"/>
      <point x="204" y="98" type="line"/>
      <point x="204" y="313" type="line"/>
      <point x="395" y="313" type="line"/>
      <point x="470" y="313"/>
      <point x="519" y="271"/>
      <point x="519" y="206" type="curve" smooth="yes"/>
      <point x="519" y="141"/>
      <point x="470" y="98"/>
    </contour>
  </outline>
</glyph>
<glyph name="C" format="2">
  <advance width="723"/>
  <unicode hex="0043"/>
  <anchor x="400" y="700" name="top"/>
  <anchor x="403" y="0" name="bottom"/>
  <outline>
    <contour>
      <point x="417" y="98" type="curve"/>
      <point x="279" y="98"/>
      <point x="174" y="207"/>
      <point x="174" y="350" type="curve" smooth="yes"/>
      <point x="174" y="494"/>
      <point x="277" y="604"/>
      <point x="413" y="604" type="curve" smooth="yes"/>
      <point x="487" y="604"/>
      <point x="556" y="569"/>
      <point x="605" y="507" type="curve"/>
      <point x="686" y="587" type="line"/>
      <point x="622" y="665"/>
      <point x="520" y="711"/>
      <point x="413" y="711" type="curve" smooth="yes"/>
      <point x="209" y="711"/>
      <point x="51" y="553"/>
      <point x="51" y="350" type="curve" smooth="yes"/>
      <point x="51" y="148"/>
      <point x="208" y="-10"/>
      <point x="413" y="-10" type="curve"/>
      <point x="517" y="-10"/>
      <point x="618" y="36"/>
      <point x="683" y="113" type="curve"/>
      <point x="604" y="189" type="line"/>
      <point x="556" y="130"/>
      <point x="490" y="98"/>
    </contour>
  </outline>
</glyph>
<glyph name="D" format="2">
  <advance width="742"/>
  <unicode hex="0044"/>
  <anchor x="369" y="700" name="top"/>
  <outline>
    <contour>
      <point x="84" y="0" type="line"/>
      <point x="340" y="0" type="line" smooth="yes"/>
      <point x="542" y="0"/>
      <point x="691" y="152"/>
      <point x="691" y="349" type="curve" smooth="yes"/>
      <point x="691" y="547"/>
      <point x="542" y="700"/>
      <point x="340" y="700" type="curve" smooth="yes"/>
      <point x="84" y="700" type="line"/>
    </contour>
    <contour>
      <point x="343" y="596" type="line"/>
      <point x="469" y="596"/>
      <point x="567" y="488"/>
      <point x="567" y="349" type="curve" smooth="yes"/>
      <point x="567" y="210"/>
      <point x="469" y="104"/>
      <point x="343" y="104" type="curve"/>
      <point x="204" y="104" type="line"/>
      <point x="204" y="596" type="line"/>
    </contour>
  </outline>
</glyph>
<glyph name="E" format="2">
  <advance width="641"/>
  <unicode hex="0045"/>
  <anchor x="347" y="700" name="top"/>
  <anchor x="586" y="0" name="bottom"/>
  <outline>
    <contour>
      <point x="84" y="0" type="line"/>
      <point x="589" y="0" type="line"/>
      <point x="589" y="102" type="line"/>
      <point x="204" y="102" type="line"/>
      <point x="204" y="303" type="line"/>
      <point x="470" y="303" type="line"/>
      <point x="470" y="403" type="line"/>
      <point x="204" y="403" type="line"/>
      <point x="204" y="598" type="line"/>
      <point x="585" y="598" type="line"/>
      <point x="585" y="700" type="line"/>
      <point x="84" y="700" type="line"/>
    </contour>
  </outline>
</glyph>
<glyph name="G" format="2">
  <advance width="802"/>
  <unicode hex="0047"/>
  <anchor x="400" y="700" name="top"/>
  <anchor x="405" y="0" name="bottom"/>
  <outline>
    <contour>
      <point x="751" y="343" type="curve"/>
      <point x="751" y="382" type="line"/>
      <point x="417" y="382" type="line"/>
      <point x="417" y="280" type="line"/>
      <point x="626" y="280" type="line"/>
      <point x="611" y="173"/>
      <point x="525" y="95"/>
      <point x="413" y="95" type="curve"/>
      <point x="277" y="95"/>
      <point x="174" y="206"/>
      <point x="174" y="350" type="curve"/>
      <point x="174" y="493"/>
      <point x="275" y="604"/>
      <point x="410" y="604" type="curve" smooth="yes"/>
      <point x="488" y="604"/>
      <point x="561" y="571"/>
      <point x="609" y="510" type="curve"/>
      <point x="693" y="587" type="line"/>
      <point x="626" y="667"/>
      <point x="521" y="711"/>
      <point x="410" y="711" type="curve" smooth="yes"/>
      <point x="208" y="711"/>
      <point x="51" y="552"/>
      <point x="51" y="350" type="curve"/>
      <point x="51" y="148"/>
      <point x="209" y="-11"/>
      <point x="412" y="-11" type="curve"/>
      <point x="607" y="-11"/>
      <point x="751" y="142"/>
    </contour>
  </outline>
</glyph>
<glyph name="H" format="2">
  <advance width="746"/>
  <unicode hex="0048"/>
  <anchor x="373" y="700" name="top"/>
  <outline>
    <contour>
      <point x="79" y="0" type="line"/>
      <point x="199" y="0" type="line"/>
      <point x="199" y="300" type="line"/>
      <point x="547" y="300" type="line"/>
      <point x="547" y="0" type="line"/>
      <point x="667" y="0" type="line"/>
      <point x="667" y="700" type="line"/>
      <point x="547" y="700" type="line"/>
      <point x="547" y="405" type="line"/>
      <point x="199" y="405" type="line"/>
      <point x="199" y="700" type="line"/>
      <point x="79" y="700" type="line"/>
    </contour>
  </outline>
</glyph>
<glyph name="I" format="2">
  <advance width="277"/>
  <unicode hex="0049"/>
  <anchor x="138" y="700" name="top"/>
  <anchor x="198" y="0" name="bottom"/>
  <outline>
    <contour>
      <point x="78" y="0" type="line"/>
      <point x="198" y="0" type="line"/>
      <point x="198" y="700" type="line"/>
      <point x="78" y="700" type="line"/>
    </contour>
  </outline>
</glyph>
<glyph name="K" format="2">
  <advance width="668"/>
  <unicode hex="004B"/>
  <anchor x="364" y="0" name="bottom"/>
  <outline>
    <contour>
      <point x="84" y="0" type="line"/>
      <point x="204" y="0" type="line"/>
      <point x="204" y="329" type="line"/>
      <point x="508" y="0" type="line"/>
      <point x="667" y="0" type="line"/>
      <point x="322" y="363" type="line"/>
      <point x="654" y="700" type="line"/>
      <point x="508" y="700" type="line"/>
      <point x="204" y="380" type="line"/>
      <point x="204" y="700" type="line"/>
      <point x="84" y="700" type="line"/>
    </contour>
  </outline>
</glyph>
<glyph name="L" format="2">
  <advance width="625"/>
  <unicode hex="004C"/>
  <anchor x="144" y="700" name="top"/>
  <anchor x="350" y="0" name="bottom"/>
  <outline>
    <contour>
      <point x="84" y="0" type="line"/>
      <point x="577" y="0" type="line"/>
      <point x="577" y="104" type="line"/>
      <point x="204" y="104" type="line"/>
      <point x="204" y="700" type="line"/>
      <point x="84" y="700" type="line"/>
    </contour>
  </outline>
</glyph>
<glyph name="M" format="2">
  <advance width="890"/>
  <unicode hex="004D"/>
  <outline>
    <contour>
      <point x="444" y="50" type="line"/>
      <point x="692" y="546" type="line"/>
      <point x="692" y="0" type="line"/>
      <point x="805" y="0" type="line"/>
      <point x="805" y="700" type="line"/>
      <point x="649" y="700" type="line"/>
      <point x="445" y="276" type="line"/>
      <point x="240" y="700" type="line"/>
      <point x="84" y="700" type="line"/>
      <point x="84" y="0" type="line"/>
      <point x="195" y="0" type="line"/>
      <point x="195" y="549" type="line"/>
    </contour>
  </outline>
</glyph>
<glyph name="N" format="2">
  <advance width="761"/>
  <unicode hex="004E"/>
  <anchor x="374" y="700" name="top"/>
  <anchor x="374" y="0" name="bottom"/>
  <outline>
    <contour>
      <point x="84" y="700" type="line"/>
      <point x="84" y="0" type="line"/>
      <point x="197" y="0" type="line"/>
      <point x="195" y="522" type="line"/>
      <point x="570" y="0" type="line"/>
      <point x="677" y="0" type="line"/>
      <point x="677" y="700" type="line"/>
      <point x="564" y="700" type="line"/>
      <point x="566" y="192" type="line"/>
      <point x="201" y="700" type="line"/>
    </contour>
  </outline>
</glyph>
<glyph name="O" format="2">
  <advance width="811"/>
  <unicode hex="004F"/>
  <anchor x="406" y="700" name="top"/>
  <outline>
    <contour>
      <point x="760" y="350" type="curve"/>
      <point x="760" y="552"/>
      <point x="604" y="711"/>
      <point x="406" y="711" type="curve"/>
      <point x="208" y="711"/>
      <point x="52" y="552"/>
      <point x="52" y="350" type="curve"/>
      <point x="52" y="148"/>
      <point x="208" y="-11"/>
      <point x="406" y="-11" type="curve"/>
      <point x="604" y="-11"/>
      <point x="760" y="148"/>
    </contour>
    <contour>
      <point x="637" y="350" type="curve"/>
      <point x="637" y="206"/>
      <point x="538" y="97"/>
      <point x="407" y="97" type="curve"/>
      <point x="276" y="97"/>
      <point x="175" y="206"/>
      <point x="175" y="350" type="curve"/>
      <point x="175" y="494"/>
      <point x="276" y="604"/>
      <point x="407" y="604" type="curve"/>
      <point x="538" y="604"/>
      <point x="637" y="494"/>
    </contour>
  </outline>
</glyph>
<glyph name="Q" format="2">
  <advance width="811"/>
  <unicode hex="0051"/>
  <outline>
    <contour>
      <point x="760" y="350" type="curve"/>
      <point x="760" y="552"/>
      <point x="604" y="711"/>
      <point x="406" y="711" type="curve"/>
      <point x="208" y="711"/>
      <point x="52" y="552"/>
      <point x="52" y="350" type="curve"/>
      <point x="52" y="148"/>
      <point x="208" y="-11"/>
      <point x="406" y="-11" type="curve"/>
      <point x="465" y="-11"/>
      <point x="521" y="3"/>
      <point x="569" y="29" type="curve"/>
      <point x="632" y="-44" type="line"/>
      <point x="718" y="17" type="line"/>
      <point x="655" y="91" type="line"/>
      <point x="720" y="156"/>
      <point x="760" y="248"/>
    </contour>
    <contour>
      <point x="501" y="270" type="line"/>
      <point x="415" y="208" type="line"/>
      <point x="495" y="115" type="line"/>
      <point x="468" y="103"/>
      <point x="439" y="97"/>
      <point x="407" y="97" type="curve"/>
      <point x="276" y="97"/>
      <point x="175" y="206"/>
      <point x="175" y="350" type="curve"/>
      <point x="175" y="494"/>
      <point x="276" y="604"/>
      <point x="407" y="604" type="curve"/>
      <point x="538" y="604"/>
      <point x="637" y="494"/>
      <point x="637" y="350" type="curve"/>
      <point x="637" y="283"/>
      <point x="615" y="223"/>
      <point x="579" y="179" type="curve"/>
    </contour>
  </outline>
</glyph>
<glyph name="S" format="2">
  <advance width="637"/>
  <unicode hex="0053"/>
  <note>
Version created Fri Aug  3 17:49:29 2018
</note>
  <anchor x="302" y="701" name="top"/>
  <anchor x="306" y="1" name="bottom"/>
  <outline>
    <contour>
      <point x="24" y="103" type="line"/>
      <point x="113" y="28"/>
      <point x="208" y="-10"/>
      <point x="318" y="-10" type="curve" smooth="yes"/>
      <point x="485" y="-10"/>
      <point x="599" y="81"/>
      <point x="599" y="209" type="curve"/>
      <point x="599" y="315"/>
      <point x="533" y="377"/>
      <point x="392" y="401" type="curve" smooth="yes"/>
      <point x="268" y="423" type="line" smooth="yes"/>
      <point x="191" y="435"/>
      <point x="160" y="461"/>
      <point x="160" y="511" type="curve"/>
      <point x="160" y="568"/>
      <point x="215" y="610"/>
      <point x="299" y="610" type="curve"/>
      <point x="377" y="610"/>
      <point x="453" y="583"/>
      <point x="523" y="529" type="curve"/>
      <point x="584" y="619" type="line"/>
      <point x="504" y="678"/>
      <point x="408" y="710"/>
      <point x="303" y="710" type="curve" smooth="yes"/>
      <point x="146" y="710"/>
      <point x="45" y="626"/>
      <point x="45" y="500" type="curve"/>
      <point x="45" y="404"/>
      <point x="104" y="344"/>
      <point x="225" y="322" type="curve" smooth="yes"/>
      <point x="354" y="300" type="line" smooth="yes"/>
      <point x="447" y="283"/>
      <point x="481" y="257"/>
      <point x="481" y="200" type="curve"/>
      <point x="481" y="136"/>
      <point x="417" y="89"/>
      <point x="324" y="89" type="curve"/>
      <point x="244" y="89"/>
      <point x="179" y="117"/>
      <point x="89" y="191" type="curve"/>
    </contour>
  </outline>
</glyph>
<glyph name="T" format="2">
  <advance width="639"/>
  <unicode hex="0054"/>
  <anchor x="320" y="700" name="top"/>
  <anchor x="320" y="0" name="bottom"/>
  <outline>
    <contour>
      <point x="25" y="596" type="line"/>
      <point x="260" y="596" type="line"/>
      <point x="260" y="0" type="line"/>
      <point x="380" y="0" type="line"/>
      <point x="380" y="596" type="line"/>
      <point x="613" y="596" type="line"/>
      <point x="613" y="700" type="line"/>
      <point x="25" y="700" type="line"/>
    </contour>
  </outline>
</glyph>
<glyph name="W" format="2">
  <advance width="936"/>
  <unicode hex="0057"/>
  <anchor x="466" y="700" name="top"/>
  <outline>
    <contour>
      <point x="315" y="0" type="line"/>
      <point x="468" y="531" type="line"/>
      <point x="621" y="0" type="line"/>
      <point x="746" y="0" type="line"/>
      <point x="899" y="700" type="line"/>
      <point x="781" y="700" type="line"/>
      <point x="677" y="187" type="line"/>
      <point x="527" y="700" type="line"/>
      <point x="413" y="700" type="line"/>
      <point x="263" y="187" type="line"/>
      <point x="159" y="700" type="line"/>
      <point x="37" y="700" type="line"/>
      <point x="190" y="0" type="line"/>
    </contour>
  </outline>
</glyph>
<glyph name="X" format="2">
  <advance width="700"/>
  <unicode hex="0058"/>
  <outline>
    <contour>
      <point x="149" y="0" type="line"/>
      <point x="347" y="274" type="line"/>
      <point x="546" y="0" type="line"/>
      <point x="689" y="0" type="line"/>
      <point x="418" y="362" type="line"/>
      <point x="668" y="700" type="line"/>
      <point x="530" y="700" type="line"/>
      <point x="350" y="451" type="line"/>
      <point x="169" y="700" type="line"/>
      <point x="25" y="700" type="line"/>
      <point x="279" y="362" type="line"/>
      <point x="10" y="0" type="line"/>
    </contour>
  </outline>
</glyph>
<glyph name="Y" format="2">
  <advance width="688"/>
  <unicode hex="0059"/>
  <anchor x="339" y="700" name="top"/>
  <outline>
    <contour>
      <point x="283" y="0" type="line"/>
      <point x="403" y="0" type="line"/>
      <point x="403" y="274" type="line"/>
      <point x="682" y="700" type="line"/>
      <point x="551" y="700" type="line"/>
      <point x="347" y="380" type="line"/>
      <point x="145" y="700" type="line"/>
      <point x="6" y="700" type="line"/>
      <point x="283" y="277" type="line"/>
    </contour>
  </outline>
</glyph>
<glyph name="Z" format="2">
  <advance width="613"/>
  <unicode hex="005A"/>
  <anchor x="311" y="700" name="top"/>
  <outline>
    <contour>
      <point x="33" y="0" type="line"/>
      <point x="584" y="0" type="line"/>
      <point x="584" y="102" type="line"/>
      <point x="187" y="99" type="line"/>
      <point x="578" y="620" type="line"/>
      <point x="578" y="700" type="line"/>
      <point x="36" y="700" type="line"/>
      <point x="36" y="598" type="line"/>
      <point x="426" y="601" type="line"/>
      <point x="33" y="80" type="line"/>
    </contour>
  </outline>
</glyph>
<glyph name="backslash" format="2">
  <advance width="504"/>
  <unicode hex="005C"/>
  <outline>
    <contour>
      <point x="554" y="-208" type="line"/>
      <point x="153" y="700" type="line"/>
      <point x="38" y="700" type="line"/>
      <point x="439" y="-208" type="line"/>
    </contour>
  </outline>
</glyph>
<glyph name="a" format="2">
  <advance width="550"/>
  <unicode hex="0061"/>
  <note>
Version created Mon Aug  6 16:22:34 2018
</note>
  <anchor x="265" y="501" name="top"/>
  <anchor x="483" y="0" name="bottom"/>
  <outline>
    <contour>
      <point x="222" y="-8" type="curve" smooth="yes"/>
      <point x="279" y="-8"/>
      <point x="326" y="10"/>
      <point x="371" y="51" type="curve"/>
      <point x="371" y="0" type="line"/>
      <point x="483" y="0" type="line"/>
      <point x="483" y="327" type="line" smooth="yes"/>
      <point x="483" y="443"/>
      <point x="408" y="509"/>
      <point x="278" y="509" type="curve" smooth="yes"/>
      <point x="211" y="509"/>
      <point x="145" y="493"/>
      <point x="70" y="458" type="curve"/>
      <point x="110" y="376" type="line"/>
      <point x="168" y="403"/>
      <point x="214" y="415"/>
      <point x="256" y="415" type="curve" smooth="yes"/>
      <point x="333" y="415"/>
      <point x="371" y="381"/>
      <point x="371" y="315" type="curve" smooth="yes"/>
      <point x="371" y="260" type="line"/>
      <point x="326" y="281"/>
      <point x="283" y="291"/>
      <point x="236" y="291" type="curve" smooth="yes"/>
      <point x="118" y="291"/>
      <point x="45" y="234"/>
      <point x="45" y="144" type="curve" smooth="yes"/>
      <point x="45" y="54"/>
      <point x="117" y="-8"/>
    </contour>
    <contour>
      <point x="151" y="146" type="curve" smooth="yes"/>
      <point x="151" y="190"/>
      <point x="191" y="218"/>
      <point x="255" y="218" type="curve" smooth="yes"/>
      <point x="299" y="218"/>
      <point x="335" y="211"/>
      <point x="371" y="194" type="curve"/>
      <point x="371" y="112" type="line"/>
      <point x="337" y="84"/>
      <point x="298" y="71"/>
      <point x="253" y="71" type="curve"/>
      <point x="191" y="71"/>
      <point x="151" y="100"/>
    </contour>
  </outline>
</glyph>
<glyph name="b" format="2">
  <advance width="611"/>
  <unicode hex="0062"/>
  <outline>
    <contour>
      <point x="564" y="250" type="curve" smooth="yes"/>
      <point x="564" y="392"/>
      <point x="464" y="505"/>
      <point x="337" y="505" type="curve"/>
      <point x="274" y="505"/>
      <point x="218" y="478"/>
      <point x="183" y="434" type="curve"/>
      <point x="183" y="734" type="line"/>
      <point x="70" y="715" type="line"/>
      <point x="70" y="0" type="line"/>
      <point x="181" y="0" type="line"/>
      <point x="181" y="65" type="line"/>
      <point x="217" y="20"/>
      <point x="270" y="-5"/>
      <point x="329" y="-5" type="curve"/>
      <point x="461" y="-5"/>
      <point x="564" y="107"/>
    </contour>
    <contour>
      <point x="303" y="410" type="curve"/>
      <point x="388" y="410"/>
      <point x="452" y="341"/>
      <point x="452" y="250" type="curve" smooth="yes"/>
      <point x="452" y="158"/>
      <point x="389" y="90"/>
      <point x="303" y="90" type="curve"/>
      <point x="255" y="90"/>
      <point x="212" y="110"/>
      <point x="183" y="145" type="curve"/>
      <point x="183" y="354" type="line"/>
      <point x="213" y="391"/>
      <point x="253" y="410"/>
    </contour>
  </outline>
</glyph>
<glyph name="c" format="2">
  <advance width="523"/>
  <unicode hex="0063"/>
  <anchor x="294" y="501" name="top"/>
  <anchor x="297" y="0" name="bottom"/>
  <outline>
    <contour>
      <point x="307" y="90" type="curve" smooth="yes"/>
      <point x="223" y="90"/>
      <point x="160" y="159"/>
      <point x="160" y="250" type="curve" smooth="yes"/>
      <point x="160" y="340"/>
      <point x="223" y="410"/>
      <point x="304" y="410" type="curve" smooth="yes"/>
      <point x="352" y="410"/>
      <point x="395" y="390"/>
      <point x="430" y="351" type="curve"/>
      <point x="500" y="424" type="line"/>
      <point x="450" y="478"/>
      <point x="378" y="508"/>
      <point x="300" y="508" type="curve"/>
      <point x="157" y="508"/>
      <point x="47" y="395"/>
      <point x="47" y="250" type="curve" smooth="yes"/>
      <point x="47" y="104"/>
      <point x="158" y="-10"/>
      <point x="300" y="-10" type="curve" smooth="yes"/>
      <point x="377" y="-10"/>
      <point x="449" y="23"/>
      <point x="496" y="77" type="curve"/>
      <point x="428" y="145" type="line"/>
      <point x="398" y="109"/>
      <point x="355" y="90"/>
    </contour>
  </outline>
</glyph>
<glyph name="d" format="2">
  <advance width="610"/>
  <unicode hex="0064"/>
  <outline>
    <contour>
      <point x="428" y="0" type="line"/>
      <point x="540" y="0" type="line"/>
      <point x="540" y="734" type="line"/>
      <point x="427" y="715" type="line"/>
      <point x="427" y="439" type="line"/>
      <point x="390" y="481"/>
      <point x="339" y="505"/>
      <point x="281" y="505" type="curve"/>
      <point x="150" y="505"/>
      <point x="47" y="393"/>
      <point x="47" y="250" type="curve" smooth="yes"/>
      <point x="47" y="108"/>
      <point x="147" y="-5"/>
      <point x="274" y="-5" type="curve"/>
      <point x="337" y="-5"/>
      <point x="393" y="22"/>
      <point x="428" y="67" type="curve"/>
    </contour>
    <contour>
      <point x="159" y="250" type="curve" smooth="yes"/>
      <point x="159" y="342"/>
      <point x="222" y="410"/>
      <point x="308" y="410" type="curve"/>
      <point x="355" y="410"/>
      <point x="398" y="390"/>
      <point x="427" y="356" type="curve"/>
      <point x="427" y="145" type="line"/>
      <point x="397" y="109"/>
      <point x="356" y="90"/>
      <point x="308" y="90" type="curve"/>
      <point x="223" y="90"/>
      <point x="159" y="159"/>
    </contour>
  </outline>
</glyph>
<glyph name="e" format="2">
  <advance width="573"/>
  <unicode hex="0065"/>
  <anchor x="290" y="501" name="top"/>
  <anchor x="379" y="0" name="bottom"/>
  <outline>
    <contour>
      <point x="501" y="64" type="curve"/>
      <point x="427" y="133" type="line"/>
      <point x="399" y="103"/>
      <point x="355" y="86"/>
      <point x="308" y="86" type="curve"/>
      <point x="231" y="86"/>
      <point x="169" y="144"/>
      <point x="158" y="223" type="curve"/>
      <point x="528" y="223" type="line"/>
      <point x="528" y="251" type="line"/>
      <point x="528" y="400"/>
      <point x="428" y="509"/>
      <point x="291" y="509" type="curve"/>
      <point x="152" y="509"/>
      <point x="47" y="397"/>
      <point x="47" y="250" type="curve" smooth="yes"/>
      <point x="47" y="104"/>
      <point x="159" y="-10"/>
      <point x="302" y="-10" type="curve"/>
      <point x="380" y="-10"/>
      <point x="440" y="13"/>
    </contour>
    <contour>
      <point x="290" y="417" type="curve"/>
      <point x="357" y="417"/>
      <point x="408" y="366"/>
      <point x="421" y="292" type="curve"/>
      <point x="160" y="292" type="line"/>
      <point x="173" y="368"/>
      <point x="223" y="417"/>
    </contour>
  </outline>
</glyph>
<glyph name="f" format="2">
  <advance width="411"/>
  <unicode hex="0066"/>
  <outline>
    <contour>
      <point x="30" y="501" type="line"/>
      <point x="30" y="411" type="line"/>
      <point x="138" y="411" type="line"/>
      <point x="138" y="0" type="line"/>
      <point x="251" y="0" type="line"/>
      <point x="251" y="411" type="line"/>
      <point x="386" y="411" type="line"/>
      <point x="386" y="501" type="line"/>
      <point x="251" y="501" type="line"/>
      <point x="251" y="588" type="line" smooth="yes"/>
      <point x="251" y="637"/>
      <point x="274" y="660"/>
      <point x="326" y="660" type="curve" smooth="yes"/>
      <point x="346" y="660"/>
      <point x="361" y="658"/>
      <point x="386" y="652" type="curve"/>
      <point x="386" y="748" type="line"/>
      <point x="367" y="754"/>
      <point x="338" y="758"/>
      <point x="311" y="758" type="curve"/>
      <point x="199" y="758"/>
      <point x="138" y="698"/>
      <point x="138" y="590" type="curve" smooth="yes"/>
      <point x="138" y="501" type="line"/>
    </contour>
  </outline>
</glyph>
<glyph name="g" format="2">
  <advance width="609"/>
  <unicode hex="0067"/>
  <anchor x="306" y="501" name="top"/>
  <outline>
    <contour>
      <point x="274" y="-3" type="curve"/>
      <point x="336" y="-3"/>
      <point x="392" y="24"/>
      <point x="427" y="68" type="curve"/>
      <point x="427" y="-17" type="line" smooth="yes"/>
      <point x="427" y="-90"/>
      <point x="383" y="-128"/>
      <point x="299" y="-128" type="curve"/>
      <point x="249" y="-128"/>
      <point x="201" y="-114"/>
      <point x="143" y="-85" type="curve"/>
      <point x="103" y="-169" type="line"/>
      <point x="162" y="-200"/>
      <point x="232" y="-217"/>
      <point x="304" y="-217" type="curve"/>
      <point x="456" y="-217"/>
      <point x="540" y="-146"/>
      <point x="540" y="-17" type="curve" smooth="yes"/>
      <point x="540" y="501" type="line"/>
      <point x="428" y="501" type="line"/>
      <point x="428" y="437" type="line"/>
      <point x="391" y="481"/>
      <point x="339" y="505"/>
      <point x="281" y="505" type="curve"/>
      <point x="150" y="505"/>
      <point x="47" y="394"/>
      <point x="47" y="251" type="curve" smooth="yes"/>
      <point x="47" y="110"/>
      <point x="147" y="-3"/>
    </contour>
    <contour>
      <point x="159" y="251" type="curve" smooth="yes"/>
      <point x="159" y="343"/>
      <point x="222" y="410"/>
      <point x="308" y="410" type="curve"/>
      <point x="355" y="410"/>
      <point x="398" y="390"/>
      <point x="427" y="356" type="curve"/>
      <point x="427" y="146" type="line"/>
      <point x="397" y="110"/>
      <point x="356" y="91"/>
      <point x="308" y="91" type="curve"/>
      <point x="223" y="91"/>
      <point x="159" y="160"/>
    </contour>
  </outline>
</glyph>
<glyph name="h" format="2">
  <advance width="582"/>
  <unicode hex="0068"/>
  <anchor x="123" y="699" name="top"/>
  <outline>
    <contour>
      <point x="70" y="0" type="line"/>
      <point x="183" y="0" type="line"/>
      <point x="183" y="358" type="line"/>
      <point x="210" y="397"/>
      <point x="247" y="418"/>
      <point x="292" y="418" type="curve" smooth="yes"/>
      <point x="359" y="418"/>
      <point x="402" y="371"/>
      <point x="402" y="298" type="curve"/>
      <point x="402" y="0" type="line"/>
      <point x="515" y="0" type="line"/>
      <point x="515" y="330" type="line" smooth="yes"/>
      <point x="515" y="435"/>
      <point x="444" y="509"/>
      <point x="342" y="509" type="curve"/>
      <point x="275" y="509"/>
      <point x="221" y="478"/>
      <point x="183" y="419" type="curve"/>
      <point x="183" y="734" type="line"/>
      <point x="70" y="715" type="line"/>
    </contour>
  </outline>
</glyph>
<glyph name="i" format="2">
  <advance width="252"/>
  <unicode hex="0069"/>
  <anchor x="126" y="501" name="top"/>
  <anchor x="183" y="0" name="bottom"/>
  <outline>
    <contour>
      <point x="126" y="603" type="curve" smooth="yes"/>
      <point x="166" y="603"/>
      <point x="197" y="633"/>
      <point x="197" y="672" type="curve" smooth="yes"/>
      <point x="197" y="710"/>
      <point x="165" y="742"/>
      <point x="126" y="742" type="curve" smooth="yes"/>
      <point x="88" y="742"/>
      <point x="56" y="710"/>
      <point x="56" y="672" type="curve" smooth="yes"/>
      <point x="56" y="633"/>
      <point x="87" y="603"/>
    </contour>
    <contour>
      <point x="183" y="501" type="line"/>
      <point x="70" y="501" type="line"/>
      <point x="70" y="0" type="line"/>
      <point x="183" y="0" type="line"/>
    </contour>
  </outline>
</glyph>
<glyph name="j" format="2">
  <advance width="252"/>
  <unicode hex="006A"/>
  <outline>
    <contour>
      <point x="126" y="603" type="curve" smooth="yes"/>
      <point x="166" y="603"/>
      <point x="197" y="633"/>
      <point x="197" y="672" type="curve" smooth="yes"/>
      <point x="197" y="710"/>
      <point x="165" y="742"/>
      <point x="126" y="742" type="curve" smooth="yes"/>
      <point x="88" y="742"/>
      <point x="56" y="710"/>
      <point x="56" y="672" type="curve" smooth="yes"/>
      <point x="56" y="633"/>
      <point x="87" y="603"/>
    </contour>
    <contour>
      <point x="35" y="-217" type="curve"/>
      <point x="130" y="-217"/>
      <point x="183" y="-165"/>
      <point x="183" y="-74" type="curve" smooth="yes"/>
      <point x="183" y="501" type="line"/>
      <point x="70" y="501" type="line"/>
      <point x="70" y="-69" type="line" smooth="yes"/>
      <point x="70" y="-107"/>
      <point x="53" y="-123"/>
      <point x="14" y="-123" type="curve"/>
      <point x="-2" y="-123"/>
      <point x="-14" y="-122"/>
      <point x="-26" y="-119" type="curve"/>
      <point x="-26" y="-210" type="line"/>
      <point x="-11" y="-214"/>
      <point x="13" y="-217"/>
    </contour>
  </outline>
</glyph>
<glyph name="k" format="2">
  <advance width="541"/>
  <unicode hex="006B"/>
  <anchor x="281" y="0" name="bottom"/>
  <outline>
    <contour>
      <point x="70" y="0" type="line"/>
      <point x="183" y="0" type="line"/>
      <point x="183" y="231" type="line"/>
      <point x="389" y="0" type="line"/>
      <point x="534" y="0" type="line"/>
      <point x="291" y="269" type="line"/>
      <point x="520" y="501" type="line"/>
      <point x="391" y="501" type="line"/>
      <point x="183" y="287" type="line"/>
      <point x="183" y="734" type="line"/>
      <point x="70" y="715" type="line"/>
    </contour>
  </outline>
</glyph>
<glyph name="l" format="2">
  <advance width="252"/>
  <unicode hex="006C"/>
  <anchor x="126" y="697" name="top"/>
  <anchor x="126" y="0" name="bottom"/>
  <outline>
    <contour>
      <point x="183" y="734" type="line"/>
      <point x="70" y="715" type="line"/>
      <point x="70" y="0" type="line"/>
      <point x="183" y="0" type="line"/>
    </contour>
  </outline>
</glyph>
<glyph name="m" format="2">
  <advance width="876"/>
  <unicode hex="006D"/>
  <outline>
    <contour>
      <point x="70" y="0" type="line"/>
      <point x="183" y="0" type="line"/>
      <point x="183" y="361" type="line"/>
      <point x="209" y="399"/>
      <point x="242" y="418"/>
      <point x="282" y="418" type="curve" smooth="yes"/>
      <point x="344" y="418"/>
      <point x="383" y="373"/>
      <point x="383" y="303" type="curve"/>
      <point x="383" y="0" type="line"/>
      <point x="496" y="0" type="line"/>
      <point x="496" y="327" type="line" smooth="yes"/>
      <point x="496" y="338"/>
      <point x="495" y="348"/>
      <point x="494" y="359" type="curve"/>
      <point x="521" y="398"/>
      <point x="554" y="418"/>
      <point x="595" y="418" type="curve" smooth="yes"/>
      <point x="657" y="418"/>
      <point x="696" y="373"/>
      <point x="696" y="303" type="curve"/>
      <point x="696" y="0" type="line"/>
      <point x="809" y="0" type="line"/>
      <point x="809" y="327" type="line" smooth="yes"/>
      <point x="809" y="434"/>
      <point x="742" y="509"/>
      <point x="645" y="509" type="curve"/>
      <point x="574" y="509"/>
      <point x="517" y="476"/>
      <point x="479" y="412" type="curve"/>
      <point x="453" y="471"/>
      <point x="399" y="509"/>
      <point x="332" y="509" type="curve"/>
      <point x="270" y="509"/>
      <point x="220" y="479"/>
      <point x="183" y="421" type="curve"/>
      <point x="183" y="501" type="line"/>
      <point x="70" y="501" type="line"/>
    </contour>
  </outline>
</glyph>
<glyph name="n" format="2">
  <advance width="582"/>
  <unicode hex="006E"/>
  <anchor x="290" y="501" name="top"/>
  <anchor x="290" y="0" name="bottom"/>
  <outline>
    <contour>
      <point x="70" y="0" type="line"/>
      <point x="183" y="0" type="line"/>
      <point x="183" y="358" type="line"/>
      <point x="210" y="397"/>
      <point x="247" y="418"/>
      <point x="292" y="418" type="curve" smooth="yes"/>
      <point x="359" y="418"/>
      <point x="402" y="371"/>
      <point x="402" y="298" type="curve"/>
      <point x="402" y="0" type="line"/>
      <point x="515" y="0" type="line"/>
      <point x="515" y="330" type="line" smooth="yes"/>
      <point x="515" y="435"/>
      <point x="444" y="509"/>
      <point x="342" y="509" type="curve"/>
      <point x="275" y="509"/>
      <point x="221" y="478"/>
      <point x="183" y="419" type="curve"/>
      <point x="183" y="501" type="line"/>
      <point x="70" y="501" type="line"/>
    </contour>
  </outline>
</glyph>
<glyph name="p" format="2">
  <advance width="611"/>
  <unicode hex="0070"/>
  <outline>
    <contour>
      <point x="70" y="-212" type="line"/>
      <point x="183" y="-212" type="line"/>
      <point x="183" y="60" type="line"/>
      <point x="219" y="18"/>
      <point x="270" y="-5"/>
      <point x="329" y="-5" type="curve"/>
      <point x="461" y="-5"/>
      <point x="564" y="107"/>
      <point x="564" y="250" type="curve" smooth="yes"/>
      <point x="564" y="392"/>
      <point x="464" y="505"/>
      <point x="337" y="505" type="curve"/>
      <point x="272" y="505"/>
      <point x="216" y="477"/>
      <point x="181" y="429" type="curve"/>
      <point x="181" y="501" type="line"/>
      <point x="70" y="501" type="line"/>
    </contour>
    <contour>
      <point x="303" y="410" type="curve"/>
      <point x="388" y="410"/>
      <point x="452" y="341"/>
      <point x="452" y="250" type="curve" smooth="yes"/>
      <point x="452" y="158"/>
      <point x="389" y="90"/>
      <point x="303" y="90" type="curve"/>
      <point x="255" y="90"/>
      <point x="212" y="110"/>
      <point x="183" y="145" type="curve"/>
      <point x="183" y="354" type="line"/>
      <point x="213" y="391"/>
      <point x="253" y="410"/>
    </contour>
  </outline>
</glyph>
<glyph name="r" format="2">
  <advance width="393"/>
  <unicode hex="0072"/>
  <anchor x="227" y="501" name="top"/>
  <anchor x="127" y="0" name="bottom"/>
  <outline>
    <contour>
      <point x="70" y="0" type="line"/>
      <point x="183" y="0" type="line"/>
      <point x="183" y="330" type="line"/>
      <point x="208" y="382"/>
      <point x="254" y="413"/>
      <point x="308" y="413" type="curve"/>
      <point x="329" y="413"/>
      <point x="352" y="409"/>
      <point x="370" y="401" type="curve"/>
      <point x="370" y="500" type="line"/>
      <point x="353" y="507"/>
      <point x="340" y="509"/>
      <point x="321" y="510" type="curve"/>
      <point x="258" y="510"/>
      <point x="210" y="469"/>
      <point x="183" y="392" type="curve"/>
      <point x="183" y="501" type="line"/>
      <point x="70" y="501" type="line"/>
    </contour>
  </outline>
</glyph>
<glyph name="t" format="2">
  <advance width="414"/>
  <unicode hex="0074"/>
  <anchor x="263" y="0" name="bottom"/>
  <outline>
    <contour>
      <point x="132" y="132" type="line"/>
      <point x="132" y="40"/>
      <point x="185" y="-8"/>
      <point x="286" y="-8" type="curve"/>
      <point x="316" y="-8"/>
      <point x="354" y="-3"/>
      <point x="383" y="6" type="curve"/>
      <point x="383" y="101" type="line"/>
      <point x="353" y="92"/>
      <point x="338" y="89"/>
      <point x="315" y="89" type="curve"/>
      <point x="264" y="89"/>
      <point x="245" y="108"/>
      <point x="245" y="157" type="curve" smooth="yes"/>
      <point x="245" y="411" type="line"/>
      <point x="385" y="411" type="line"/>
      <point x="385" y="501" type="line"/>
      <point x="245" y="501" type="line"/>
      <point x="245" y="663" type="line"/>
      <point x="132" y="639" type="line"/>
      <point x="132" y="501" type="line"/>
      <point x="31" y="501" type="line"/>
      <point x="31" y="411" type="line"/>
      <point x="132" y="411" type="line"/>
    </contour>
  </outline>
</glyph>
<glyph name="u" format="2">
  <advance width="582"/>
  <unicode hex="0075"/>
  <anchor x="285" y="501" name="top"/>
  <anchor x="513" y="0" name="bottom"/>
  <outline>
    <contour>
      <point x="180" y="501" type="line"/>
      <point x="67" y="501" type="line"/>
      <point x="67" y="171" type="line" smooth="yes"/>
      <point x="67" y="65"/>
      <point x="138" y="-8"/>
      <point x="240" y="-8" type="curve"/>
      <point x="308" y="-8"/>
      <point x="362" y="24"/>
      <point x="400" y="83" type="curve"/>
      <point x="400" y="0" type="line"/>
      <point x="513" y="0" type="line"/>
      <point x="513" y="501" type="line"/>
      <point x="400" y="501" type="line"/>
      <point x="400" y="145" type="line"/>
      <point x="373" y="104"/>
      <point x="336" y="83"/>
      <point x="290" y="83" type="curve" smooth="yes"/>
      <point x="223" y="83"/>
      <point x="180" y="130"/>
      <point x="180" y="203" type="curve"/>
    </contour>
  </outline>
</glyph>
<glyph name="w" format="2">
  <advance width="737"/>
  <unicode hex="0077"/>
  <anchor x="369" y="501" name="top"/>
  <outline>
    <contour>
      <point x="268" y="0" type="line"/>
      <point x="369" y="353" type="line"/>
      <point x="470" y="0" type="line"/>
      <point x="579" y="0" type="line"/>
      <point x="714" y="501" type="line"/>
      <point x="608" y="501" type="line"/>
      <point x="521" y="146" type="line"/>
      <point x="418" y="501" type="line"/>
      <point x="322" y="501" type="line"/>
      <point x="219" y="147" type="line"/>
      <point x="131" y="501" type="line"/>
      <point x="23" y="501" type="line"/>
      <point x="158" y="0" type="line"/>
    </contour>
  </outline>
</glyph>
<glyph name="x" format="2">
  <advance width="534"/>
  <unicode hex="0078"/>
  <outline>
    <contour>
      <point x="12" y="0" type="line"/>
      <point x="138" y="0" type="line"/>
      <point x="264" y="177" type="line"/>
      <point x="390" y="0" type="line"/>
      <point x="523" y="0" type="line"/>
      <point x="329" y="258" type="line"/>
      <point x="509" y="501" type="line"/>
      <point x="383" y="501" type="line"/>
      <point x="266" y="336" type="line"/>
      <point x="149" y="501" type="line"/>
      <point x="17" y="501" type="line"/>
      <point x="200" y="255" type="line"/>
    </contour>
  </outline>
</glyph>
<glyph name="y" format="2">
  <advance width="537"/>
  <unicode hex="0079"/>
  <anchor x="265" y="501" name="top"/>
  <outline>
    <contour>
      <point x="177" y="-56" type="line" smooth="yes"/>
      <point x="161" y="-96"/>
      <point x="136" y="-114"/>
      <point x="96" y="-114" type="curve"/>
      <point x="86" y="-114"/>
      <point x="79" y="-113"/>
      <point x="52" y="-110" type="curve"/>
      <point x="52" y="-207" type="line"/>
      <point x="72" y="-212"/>
      <point x="92" y="-214"/>
      <point x="109" y="-214" type="curve"/>
      <point x="202" y="-214"/>
      <point x="249" y="-178"/>
      <point x="287" y="-82" type="curve" smooth="yes"/>
      <point x="525" y="501" type="line"/>
      <point x="402" y="501" type="line"/>
      <point x="262" y="129" type="line"/>
      <point x="135" y="501" type="line"/>
      <point x="9" y="501" type="line"/>
      <point x="198" y="-3" type="line"/>
    </contour>
  </outline>
</glyph>
<glyph name="braceleft" format="2">
  <advance width="422"/>
  <unicode hex="007B"/>
  <outline>
    <contour>
      <point x="275" y="84" type="line" smooth="yes"/>
      <point x="301" y="160"/>
      <point x="263" y="226"/>
      <point x="185" y="245" type="curve"/>
      <point x="263" y="263"/>
      <point x="301" y="329"/>
      <point x="275" y="405" type="curve" smooth="yes"/>
      <point x="236" y="514" type="line" smooth="yes"/>
      <point x="213" y="576"/>
      <point x="236" y="621"/>
      <point x="293" y="622" type="curve"/>
      <point x="314" y="622"/>
      <point x="332" y="618"/>
      <point x="353" y="611" type="curve"/>
      <point x="370" y="694" type="line"/>
      <point x="339" y="705"/>
      <point x="312" y="710"/>
      <point x="282" y="710" type="curve"/>
      <point x="160" y="710"/>
      <point x="100" y="622"/>
      <point x="142" y="505" type="curve" smooth="yes"/>
      <point x="176" y="409" type="line" smooth="yes"/>
      <point x="202" y="339"/>
      <point x="173" y="288"/>
      <point x="109" y="288" type="curve" smooth="yes"/>
      <point x="34" y="288" type="line"/>
      <point x="34" y="201" type="line"/>
      <point x="109" y="201" type="line" smooth="yes"/>
      <point x="173" y="201"/>
      <point x="202" y="150"/>
      <point x="176" y="80" type="curve" smooth="yes"/>
      <point x="142" y="-16" type="line" smooth="yes"/>
      <point x="100" y="-134"/>
      <point x="160" y="-221"/>
      <point x="282" y="-221" type="curve"/>
      <point x="312" y="-221"/>
      <point x="339" y="-216"/>
      <point x="370" y="-205" type="curve"/>
      <point x="353" y="-122" type="line"/>
      <point x="332" y="-130"/>
      <point x="314" y="-133"/>
      <point x="293" y="-133" type="curve"/>
      <point x="236" y="-132"/>
      <point x="213" y="-88"/>
      <point x="236" y="-26" type="curve" smooth="yes"/>
    </contour>
  </outline>
</glyph>
<glyph name="bar" format="2">
  <advance width="321"/>
  <unicode hex="007C"/>
  <outline>
    <contour>
      <point x="110" y="-210" type="line"/>
      <point x="212" y="-210" type="line"/>
      <point x="212" y="700" type="line"/>
      <point x="110" y="700" type="line"/>
    </contour>
  </outline>
</glyph>
<glyph name="asciitilde" format="2">
  <advance width="597"/>
  <unicode hex="007E"/>
  <outline>
    <contour>
      <point x="268" y="435" type="line" smooth="yes"/>
      <point x="233" y="453"/>
      <point x="205" y="461"/>
      <point x="178" y="461" type="curve" smooth="yes"/>
      <point x="105" y="461"/>
      <point x="57" y="404"/>
      <point x="45" y="300" type="curve"/>
      <point x="124" y="291" type="line"/>
      <point x="131" y="347"/>
      <point x="152" y="374"/>
      <point x="188" y="374" type="curve" smooth="yes"/>
      <point x="203" y="374"/>
      <point x="217" y="369"/>
      <point x="249" y="354" type="curve" smooth="yes"/>
      <point x="329" y="312" type="line" smooth="yes"/>
      <point x="361" y="295"/>
      <point x="392" y="287"/>
      <point x="419" y="287" type="curve" smooth="yes"/>
      <point x="492" y="287"/>
      <point x="540" y="345"/>
      <point x="552" y="448" type="curve"/>
      <point x="473" y="457" type="line"/>
      <point x="467" y="401"/>
      <point x="445" y="374"/>
      <point x="408" y="374" type="curve" smooth="yes"/>
      <point x="394" y="374"/>
      <point x="378" y="379"/>
      <point x="349" y="394" type="curve" smooth="yes"/>
    </contour>
  </outline>
</glyph>
<glyph name="cent" format="2">
  <advance width="529"/>
  <unicode hex="00A2"/>
  <outline>
    <contour>
      <point x="270" y="-114" type="line"/>
      <point x="326" y="-114" type="line"/>
      <point x="326" y="-8" type="line"/>
      <point x="393" y="-1"/>
      <point x="454" y="30"/>
      <point x="496" y="78" type="curve"/>
      <point x="428" y="146" type="line"/>
      <point x="402" y="115"/>
      <point x="366" y="96"/>
      <point x="326" y="92" type="curve"/>
      <point x="326" y="410" type="line"/>
      <point x="365" y="404"/>
      <point x="400" y="385"/>
      <point x="430" y="352" type="curve"/>
      <point x="500" y="425" type="line"/>
      <point x="456" y="473"/>
      <point x="394" y="502"/>
      <point x="326" y="508" type="curve"/>
      <point x="326" y="616" type="line"/>
      <point x="270" y="616" type="line"/>
      <point x="270" y="507" type="line"/>
      <point x="142" y="493"/>
      <point x="47" y="386"/>
      <point x="47" y="251" type="curve" smooth="yes"/>
      <point x="47" y="115"/>
      <point x="143" y="7"/>
      <point x="270" y="-7" type="curve"/>
    </contour>
    <contour>
      <point x="160" y="251" type="curve" smooth="yes"/>
      <point x="160" y="328"/>
      <point x="206" y="390"/>
      <point x="270" y="407" type="curve"/>
      <point x="270" y="96" type="line"/>
      <point x="205" y="113"/>
      <point x="160" y="174"/>
    </contour>
  </outline>
</glyph>
<glyph name="sterling" format="2">
  <advance width="636"/>
  <unicode hex="00A3"/>
  <anchor x="117" y="-11" name="top"/>
  <anchor x="331" y="-11" name="top"/>
  <anchor x="258" y="689" name="bottom"/>
  <outline>
    <contour>
      <point x="224" y="26" type="curve" smooth="yes"/>
      <point x="396" y="-16" type="line" smooth="yes"/>
      <point x="500" y="-43"/>
      <point x="573" y="-13"/>
      <point x="624" y="78" type="curve"/>
      <point x="540" y="129" type="line"/>
      <point x="512" y="75"/>
      <point x="474" y="59"/>
      <point x="411" y="74" type="curve" smooth="yes"/>
      <point x="245" y="114" type="line"/>
      <point x="269" y="142"/>
      <point x="278" y="182"/>
      <point x="268" y="232" type="curve" smooth="yes"/>
      <point x="257" y="295" type="line"/>
      <point x="428" y="295" type="line"/>
      <point x="428" y="373" type="line"/>
      <point x="242" y="373" type="line"/>
      <point x="231" y="435" type="line" smooth="yes"/>
      <point x="210" y="548"/>
      <point x="252" y="615"/>
      <point x="346" y="615" type="curve"/>
      <point x="416" y="615"/>
      <point x="461" y="576"/>
      <point x="482" y="500" type="curve"/>
      <point x="581" y="531" type="line"/>
      <point x="548" y="648"/>
      <point x="467" y="710"/>
      <point x="342" y="710" type="curve"/>
      <point x="181" y="710"/>
      <point x="93" y="588"/>
      <point x="127" y="412" type="curve" smooth="yes"/>
      <point x="134" y="373" type="line"/>
      <point x="51" y="373" type="line"/>
      <point x="51" y="295" type="line"/>
      <point x="149" y="295" type="line"/>
      <point x="167" y="196" type="line" smooth="yes"/>
      <point x="173" y="164"/>
      <point x="167" y="139"/>
      <point x="149" y="124" type="curve"/>
      <point x="89" y="117"/>
      <point x="43" y="83"/>
      <point x="8" y="18" type="curve"/>
      <point x="93" y="-36" type="line"/>
      <point x="123" y="23"/>
      <point x="161" y="42"/>
    </contour>
  </outline>
</glyph>
<glyph name="yen" format="2">
  <advance width="698"/>
  <unicode hex="00A5"/>
  <outline>
    <contour>
      <point x="115" y="210" type="line"/>
      <point x="115" y="145" type="line"/>
      <point x="283" y="145" type="line"/>
      <point x="283" y="0" type="line"/>
      <point x="403" y="0" type="line"/>
      <point x="403" y="145" type="line"/>
      <point x="573" y="145" type="line"/>
      <point x="573" y="210" type="line"/>
      <point x="403" y="210" type="line"/>
      <point x="403" y="274" type="line"/>
      <point x="404" y="276" type="line"/>
      <point x="573" y="276" type="line"/>
      <point x="573" y="341" type="line"/>
      <point x="447" y="341" type="line"/>
      <point x="682" y="700" type="line"/>
      <point x="551" y="700" type="line"/>
      <point x="347" y="380" type="line"/>
      <point x="145" y="700" type="line"/>
      <point x="6" y="700" type="line"/>
      <point x="241" y="341" type="line"/>
      <point x="115" y="341" type="line"/>
      <point x="115" y="276" type="line"/>
      <point x="283" y="276" type="line"/>
      <point x="283" y="210" type="line"/>
    </contour>
  </outline>
</glyph>
<glyph name="uni00A6" format="2">
  <advance width="326"/>
  <unicode hex="00A6"/>
  <outline>
    <contour>
      <point x="216" y="285" type="line"/>
      <point x="216" y="700" type="line"/>
      <point x="110" y="700" type="line"/>
      <point x="110" y="285" type="line"/>
    </contour>
    <contour>
      <point x="110" y="-210" type="line"/>
      <point x="216" y="-210" type="line"/>
      <point x="216" y="205" type="line"/>
      <point x="110" y="205" type="line"/>
    </contour>
  </outline>
</glyph>
<glyph name="section" format="2">
  <advance width="575"/>
  <unicode hex="00A7"/>
  <outline>
    <contour>
      <point x="461" y="95" type="curve" smooth="yes"/>
      <point x="461" y="133"/>
      <point x="449" y="164"/>
      <point x="423" y="188" type="curve"/>
      <point x="483" y="211"/>
      <point x="518" y="257"/>
      <point x="518" y="318" type="curve" smooth="yes"/>
      <point x="518" y="393"/>
      <point x="481" y="432"/>
      <point x="377" y="468" type="curve" smooth="yes"/>
      <point x="276" y="503" type="line" smooth="yes"/>
      <point x="232" y="518"/>
      <point x="213" y="538"/>
      <point x="213" y="569" type="curve" smooth="yes"/>
      <point x="213" y="609"/>
      <point x="243" y="633"/>
      <point x="294" y="633" type="curve" smooth="yes"/>
      <point x="336" y="633"/>
      <point x="383" y="617"/>
      <point x="436" y="585" type="curve"/>
      <point x="480" y="657" type="line"/>
      <point x="421" y="691"/>
      <point x="356" y="710"/>
      <point x="296" y="710" type="curve" smooth="yes"/>
      <point x="187" y="710"/>
      <point x="115" y="651"/>
      <point x="115" y="561" type="curve" smooth="yes"/>
      <point x="115" y="523"/>
      <point x="127" y="492"/>
      <point x="153" y="468" type="curve"/>
      <point x="94" y="446"/>
      <point x="58" y="400"/>
      <point x="58" y="339" type="curve" smooth="yes"/>
      <point x="58" y="264"/>
      <point x="95" y="225"/>
      <point x="199" y="189" type="curve" smooth="yes"/>
      <point x="300" y="154" type="line" smooth="yes"/>
      <point x="345" y="138"/>
      <point x="362" y="119"/>
      <point x="362" y="88" type="curve" smooth="yes"/>
      <point x="362" y="49"/>
      <point x="332" y="24"/>
      <point x="282" y="24" type="curve" smooth="yes"/>
      <point x="240" y="23"/>
      <point x="193" y="39"/>
      <point x="139" y="72" type="curve"/>
      <point x="96" y="0" type="line"/>
      <point x="153" y="-34"/>
      <point x="217" y="-52"/>
      <point x="280" y="-52" type="curve" smooth="yes"/>
      <point x="389" y="-52"/>
      <point x="461" y="6"/>
    </contour>
    <contour>
      <point x="334" y="237" type="curve" smooth="yes"/>
      <point x="223" y="275" type="line" smooth="yes"/>
      <point x="171" y="293"/>
      <point x="150" y="315"/>
      <point x="150" y="350" type="curve" smooth="yes"/>
      <point x="150" y="390"/>
      <point x="179" y="418"/>
      <point x="226" y="425" type="curve"/>
      <point x="231" y="423"/>
      <point x="236" y="422"/>
      <point x="241" y="420" type="curve" smooth="yes"/>
      <point x="353" y="382" type="line" smooth="yes"/>
      <point x="404" y="364"/>
      <point x="426" y="341"/>
      <point x="426" y="306" type="curve" smooth="yes"/>
      <point x="426" y="267"/>
      <point x="396" y="239"/>
      <point x="349" y="232" type="curve"/>
      <point x="344" y="234"/>
      <point x="339" y="235"/>
    </contour>
  </outline>
</glyph>
<glyph name="dieresis" format="2">
  <advance width="572"/>
  <unicode hex="00A8"/>
  <anchor x="286" y="501" name="_top"/>
  <outline>
    <contour>
      <point x="185" y="602" type="curve" smooth="yes"/>
      <point x="220" y="602"/>
      <point x="249" y="630"/>
      <point x="249" y="667" type="curve" smooth="yes"/>
      <point x="249" y="704"/>
      <point x="220" y="731"/>
      <point x="185" y="731" type="curve" smooth="yes"/>
      <point x="149" y="731"/>
      <point x="120" y="704"/>
      <point x="120" y="667" type="curve" smooth="yes"/>
      <point x="120" y="630"/>
      <point x="149" y="602"/>
    </contour>
    <contour>
      <point x="388" y="602" type="curve" smooth="yes"/>
      <point x="424" y="602"/>
      <point x="452" y="630"/>
      <point x="452" y="667" type="curve" smooth="yes"/>
      <point x="452" y="704"/>
      <point x="424" y="731"/>
      <point x="388" y="731" type="curve" smooth="yes"/>
      <point x="352" y="731"/>
      <point x="323" y="704"/>
      <point x="323" y="667" type="curve" smooth="yes"/>
      <point x="323" y="630"/>
      <point x="352" y="602"/>
    </contour>
  </outline>
</glyph>
<glyph name="ordfeminine" format="2">
  <advance width="427"/>
  <unicode hex="00AA"/>
  <outline>
    <contour>
      <point x="172" y="306" type="curve" smooth="yes"/>
      <point x="216" y="306"/>
      <point x="252" y="319"/>
      <point x="287" y="348" type="curve"/>
      <point x="287" y="313" type="line"/>
      <point x="377" y="313" type="line"/>
      <point x="377" y="566" type="line"/>
      <point x="377" y="656"/>
      <point x="318" y="708"/>
      <point x="215" y="708" type="curve"/>
      <point x="163" y="708"/>
      <point x="110" y="695"/>
      <point x="49" y="667" type="curve"/>
      <point x="82" y="599" type="line"/>
      <point x="131" y="621"/>
      <point x="167" y="631"/>
      <point x="200" y="631" type="curve" smooth="yes"/>
      <point x="258" y="631"/>
      <point x="287" y="606"/>
      <point x="287" y="557" type="curve"/>
      <point x="287" y="522" type="line"/>
      <point x="255" y="535"/>
      <point x="222" y="541"/>
      <point x="189" y="541" type="curve"/>
      <point x="90" y="541"/>
      <point x="30" y="498"/>
      <point x="30" y="425" type="curve" smooth="yes"/>
      <point x="30" y="355"/>
      <point x="89" y="306"/>
    </contour>
    <contour>
      <point x="118" y="426" type="curve" smooth="yes"/>
      <point x="118" y="460"/>
      <point x="148" y="480"/>
      <point x="198" y="480" type="curve"/>
      <point x="232" y="480"/>
      <point x="260" y="475"/>
      <point x="287" y="463" type="curve"/>
      <point x="287" y="401" type="line"/>
      <point x="262" y="382"/>
      <point x="231" y="372"/>
      <point x="195" y="372" type="curve"/>
      <point x="148" y="372"/>
      <point x="118" y="394"/>
    </contour>
  </outline>
</glyph>
<glyph name="uni00AC" format="2">
  <advance width="574"/>
  <unicode hex="00AC"/>
  <outline>
    <contour>
      <point x="54" y="332" type="line"/>
      <point x="54" y="235" type="line"/>
      <point x="411" y="235" type="line"/>
      <point x="411" y="0" type="line"/>
      <point x="520" y="0" type="line"/>
      <point x="520" y="332" type="line"/>
    </contour>
  </outline>
</glyph>
<glyph name="registered" format="2">
  <advance width="497"/>
  <unicode hex="00AE"/>
  <outline>
    <contour>
      <point x="248" y="308" type="curve" smooth="yes"/>
      <point x="357" y="308"/>
      <point x="443" y="399"/>
      <point x="443" y="513" type="curve" smooth="yes"/>
      <point x="443" y="627"/>
      <point x="357" y="718"/>
      <point x="248" y="718" type="curve" smooth="yes"/>
      <point x="139" y="718"/>
      <point x="53" y="627"/>
      <point x="53" y="513" type="curve" smooth="yes"/>
      <point x="53" y="399"/>
      <point x="139" y="308"/>
    </contour>
    <contour>
      <point x="248" y="349" type="curve" smooth="yes"/>
      <point x="160" y="349"/>
      <point x="96" y="419"/>
      <point x="96" y="513" type="curve"/>
      <point x="96" y="608"/>
      <point x="160" y="677"/>
      <point x="248" y="677" type="curve" smooth="yes"/>
      <point x="337" y="677"/>
      <point x="401" y="608"/>
      <point x="401" y="513" type="curve" smooth="yes"/>
      <point x="401" y="418"/>
      <point x="337" y="349"/>
    </contour>
    <contour>
      <point x="181" y="420" type="line"/>
      <point x="222" y="420" type="line"/>
      <point x="222" y="488" type="line"/>
      <point x="249" y="488" type="line"/>
      <point x="286" y="420" type="line"/>
      <point x="330" y="420" type="line"/>
      <point x="288" y="497" type="line"/>
      <point x="307" y="507"/>
      <point x="319" y="527"/>
      <point x="319" y="549" type="curve" smooth="yes"/>
      <point x="319" y="585"/>
      <point x="296" y="608"/>
      <point x="259" y="608" type="curve" smooth="yes"/>
      <point x="181" y="608" type="line"/>
    </contour>
    <contour>
      <point x="252" y="575" type="line" smooth="yes"/>
      <point x="270" y="575"/>
      <point x="279" y="565"/>
      <point x="279" y="547" type="curve" smooth="yes"/>
      <point x="279" y="530"/>
      <point x="268" y="519"/>
      <point x="251" y="519" type="curve" smooth="yes"/>
      <point x="222" y="519" type="line"/>
      <point x="222" y="575" type="line"/>
    </contour>
  </outline>
</glyph>
<glyph name="macron" format="2">
  <advance width="522"/>
  <unicode hex="00AF"/>
  <anchor x="261" y="501" name="_top"/>
  <outline>
    <contour>
      <point x="414" y="692" type="line"/>
      <point x="115" y="692" type="line"/>
      <point x="115" y="618" type="line"/>
      <point x="414" y="618" type="line"/>
    </contour>
  </outline>
</glyph>
<glyph name="uni00B5" format="2">
  <advance width="597"/>
  <unicode hex="00B5"/>
  <outline>
    <contour>
      <point x="177" y="514" type="line"/>
      <point x="64" y="514" type="line"/>
      <point x="64" y="-208" type="line"/>
      <point x="177" y="-208" type="line"/>
      <point x="177" y="13" type="line"/>
      <point x="202" y="-2"/>
      <point x="232" y="-10"/>
      <point x="266" y="-10" type="curve"/>
      <point x="326" y="-10"/>
      <point x="377" y="10"/>
      <point x="416" y="48" type="curve"/>
      <point x="416" y="0" type="line"/>
      <point x="530" y="0" type="line"/>
      <point x="530" y="514" type="line"/>
      <point x="416" y="514" type="line"/>
      <point x="416" y="150" type="line"/>
      <point x="390" y="111"/>
      <point x="349" y="88"/>
      <point x="298" y="88" type="curve" smooth="yes"/>
      <point x="224" y="88"/>
      <point x="177" y="136"/>
      <point x="177" y="211" type="curve"/>
    </contour>
  </outline>
</glyph>
<glyph name="cedilla" format="2">
  <advance width="522"/>
  <unicode hex="00B8"/>
  <anchor x="291" y="0" name="_bottom"/>
  <outline>
    <contour>
      <point x="402" y="-145" type="curve"/>
      <point x="402" y="-97"/>
      <point x="365" y="-66"/>
      <point x="303" y="-62" type="curve"/>
      <point x="318" y="0" type="line"/>
      <point x="262" y="0" type="line"/>
      <point x="236" y="-105" type="line"/>
      <point x="272" y="-105" type="line" smooth="yes"/>
      <point x="313" y="-105"/>
      <point x="337" y="-120"/>
      <point x="337" y="-147" type="curve"/>
      <point x="337" y="-176"/>
      <point x="315" y="-192"/>
      <point x="276" y="-192" type="curve"/>
      <point x="249" y="-192"/>
      <point x="221" y="-182"/>
      <point x="198" y="-164" type="curve"/>
      <point x="161" y="-207" type="line"/>
      <point x="190" y="-233"/>
      <point x="231" y="-246"/>
      <point x="282" y="-246" type="curve"/>
      <point x="352" y="-246"/>
      <point x="402" y="-203"/>
    </contour>
  </outline>
</glyph>
<glyph name="ordmasculine" format="2">
  <advance width="476"/>
  <unicode hex="00BA"/>
  <outline>
    <contour>
      <point x="32" y="506" type="curve" smooth="yes"/>
      <point x="32" y="393"/>
      <point x="121" y="305"/>
      <point x="236" y="305" type="curve" smooth="yes"/>
      <point x="351" y="305"/>
      <point x="441" y="393"/>
      <point x="441" y="506" type="curve" smooth="yes"/>
      <point x="441" y="619"/>
      <point x="351" y="708"/>
      <point x="236" y="708" type="curve" smooth="yes"/>
      <point x="121" y="708"/>
      <point x="32" y="619"/>
    </contour>
    <contour>
      <point x="352" y="506" type="curve" smooth="yes"/>
      <point x="352" y="438"/>
      <point x="301" y="385"/>
      <point x="236" y="385" type="curve" smooth="yes"/>
      <point x="171" y="385"/>
      <point x="121" y="438"/>
      <point x="121" y="506" type="curve" smooth="yes"/>
      <point x="121" y="574"/>
      <point x="172" y="627"/>
      <point x="236" y="627" type="curve" smooth="yes"/>
      <point x="300" y="627"/>
      <point x="352" y="574"/>
    </contour>
  </outline>
</glyph>
<glyph name="AE" format="2">
  <advance width="949"/>
  <unicode hex="00C6"/>
  <outline>
    <contour>
      <point x="6" y="0" type="line"/>
      <point x="131" y="0" type="line"/>
      <point x="203" y="196" type="line"/>
      <point x="490" y="196" type="line"/>
      <point x="561" y="0" type="line"/>
      <point x="897" y="0" type="line"/>
      <point x="897" y="105" type="line"/>
      <point x="647" y="105" type="line"/>
      <point x="575" y="302" type="line"/>
      <point x="771" y="302" type="line"/>
      <point x="771" y="404" type="line"/>
      <point x="537" y="404" type="line"/>
      <point x="467" y="595" type="line"/>
      <point x="897" y="595" type="line"/>
      <point x="897" y="700" type="line"/>
      <point x="281" y="700" type="line"/>
    </contour>
    <contour>
      <point x="238" y="290" type="line"/>
      <point x="348" y="588" type="line"/>
      <point x="456" y="290" type="line"/>
    </contour>
  </outline>
</glyph>
<glyph name="Ccedilla" format="2">
  <advance width="723"/>
  <unicode hex="00C7"/>
  <outline>
    <contour>
      <point x="417" y="98" type="curve"/>
      <point x="279" y="98"/>
      <point x="174" y="207"/>
      <point x="174" y="350" type="curve" smooth="yes"/>
      <point x="174" y="494"/>
      <point x="277" y="604"/>
      <point x="413" y="604" type="curve" smooth="yes"/>
      <point x="487" y="604"/>
      <point x="556" y="569"/>
      <point x="605" y="507" type="curve"/>
      <point x="686" y="587" type="line"/>
      <point x="622" y="665"/>
      <point x="520" y="711"/>
      <point x="413" y="711" type="curve" smooth="yes"/>
      <point x="209" y="711"/>
      <point x="51" y="553"/>
      <point x="51" y="350" type="curve" smooth="yes"/>
      <point x="51" y="162"/>
      <point x="187" y="12"/>
      <point x="372" y="-8" type="curve"/>
      <point x="348" y="-105" type="line"/>
      <point x="384" y="-105" type="line" smooth="yes"/>
      <point x="425" y="-105"/>
      <point x="449" y="-120"/>
      <point x="449" y="-147" type="curve"/>
      <point x="449" y="-176"/>
      <point x="427" y="-192"/>
      <point x="388" y="-192" type="curve"/>
      <point x="361" y="-192"/>
      <point x="333" y="-182"/>
      <point x="310" y="-164" type="curve"/>
      <point x="273" y="-207" type="line"/>
      <point x="302" y="-233"/>
      <point x="343" y="-246"/>
      <point x="394" y="-246" type="curve"/>
      <point x="464" y="-246"/>
      <point x="514" y="-203"/>
      <point x="514" y="-145" type="curve"/>
      <point x="514" y="-97"/>
      <point x="477" y="-66"/>
      <point x="415" y="-62" type="curve"/>
      <point x="428" y="-10" type="line"/>
      <point x="526" y="-6"/>
      <point x="621" y="40"/>
      <point x="683" y="113" type="curve"/>
      <point x="604" y="189" type="line"/>
      <point x="556" y="130"/>
      <point x="490" y="98"/>
    </contour>
  </outline>
</glyph>
<glyph name="Eth" format="2">
  <advance width="771"/>
  <unicode hex="00D0"/>
  <outline>
    <contour>
      <point x="113" y="0" type="line"/>
      <point x="369" y="0" type="line" smooth="yes"/>
      <point x="571" y="0"/>
      <point x="720" y="152"/>
      <point x="720" y="349" type="curve" smooth="yes"/>
      <point x="720" y="547"/>
      <point x="571" y="700"/>
      <point x="369" y="700" type="curve" smooth="yes"/>
      <point x="113" y="700" type="line"/>
      <point x="113" y="399" type="line"/>
      <point x="24" y="399" type="line"/>
      <point x="24" y="302" type="line"/>
      <point x="113" y="302" type="line"/>
    </contour>
    <contour>
      <point x="372" y="596" type="line"/>
      <point x="498" y="596"/>
      <point x="596" y="488"/>
      <point x="596" y="349" type="curve" smooth="yes"/>
      <point x="596" y="210"/>
      <point x="498" y="104"/>
      <point x="372" y="104" type="curve"/>
      <point x="233" y="104" type="line"/>
      <point x="233" y="302" type="line"/>
      <point x="387" y="302" type="line"/>
      <point x="387" y="399" type="line"/>
      <point x="233" y="399" type="line"/>
      <point x="233" y="596" type="line"/>
    </contour>
  </outline>
</glyph>
<glyph name="multiply" format="2">
  <advance width="546"/>
  <unicode hex="00D7"/>
  <outline>
    <contour>
      <point x="128" y="149" type="line"/>
      <point x="272" y="302" type="line"/>
      <point x="416" y="148" type="line"/>
      <point x="471" y="205" type="line"/>
      <point x="326" y="360" type="line"/>
      <point x="470" y="514" type="line"/>
      <point x="417" y="569" type="line"/>
      <point x="273" y="416" type="line"/>
      <point x="129" y="570" type="line"/>
      <point x="75" y="513" type="line"/>
      <point x="219" y="359" type="line"/>
      <point x="75" y="205" type="line"/>
    </contour>
  </outline>
</glyph>
<glyph name="Oslash" format="2">
  <advance width="811"/>
  <unicode hex="00D8"/>
  <outline>
    <contour>
      <point x="162" y="-5" type="line"/>
      <point x="207" y="50" type="line"/>
      <point x="264" y="11"/>
      <point x="332" y="-11"/>
      <point x="406" y="-11" type="curve"/>
      <point x="604" y="-11"/>
      <point x="760" y="148"/>
      <point x="760" y="350" type="curve"/>
      <point x="760" y="447"/>
      <point x="724" y="535"/>
      <point x="664" y="599" type="curve"/>
      <point x="752" y="705" type="line"/>
      <point x="647" y="705" type="line"/>
      <point x="603" y="652" type="line"/>
      <point x="547" y="689"/>
      <point x="479" y="711"/>
      <point x="406" y="711" type="curve"/>
      <point x="208" y="711"/>
      <point x="52" y="552"/>
      <point x="52" y="350" type="curve"/>
      <point x="52" y="253"/>
      <point x="88" y="166"/>
      <point x="147" y="102" type="curve"/>
      <point x="59" y="-5" type="line"/>
    </contour>
    <contour>
      <point x="175" y="350" type="curve"/>
      <point x="175" y="494"/>
      <point x="276" y="604"/>
      <point x="407" y="604" type="curve"/>
      <point x="454" y="604"/>
      <point x="496" y="590"/>
      <point x="532" y="566" type="curve"/>
      <point x="223" y="193" type="line"/>
      <point x="193" y="236"/>
      <point x="175" y="290"/>
    </contour>
    <contour>
      <point x="637" y="350" type="curve"/>
      <point x="637" y="206"/>
      <point x="538" y="97"/>
      <point x="407" y="97" type="curve"/>
      <point x="359" y="97"/>
      <point x="316" y="111"/>
      <point x="280" y="137" type="curve"/>
      <point x="589" y="509" type="line"/>
      <point x="619" y="466"/>
      <point x="637" y="411"/>
    </contour>
  </outline>
</glyph>
<glyph name="Thorn" format="2">
  <advance width="679"/>
  <unicode hex="00DE"/>
  <outline>
    <contour>
      <point x="84" y="0" type="line"/>
      <point x="204" y="0" type="line"/>
      <point x="204" y="134" type="line"/>
      <point x="397" y="134" type="line"/>
      <point x="539" y="134"/>
      <point x="631" y="223"/>
      <point x="631" y="349" type="curve"/>
      <point x="631" y="478"/>
      <point x="539" y="567"/>
      <point x="397" y="567" type="curve"/>
      <point x="204" y="567" type="line"/>
      <point x="204" y="700" type="line"/>
      <point x="84" y="700" type="line"/>
    </contour>
    <contour>
      <point x="379" y="465" type="line"/>
      <point x="463" y="465"/>
      <point x="510" y="419"/>
      <point x="510" y="349" type="curve"/>
      <point x="510" y="279"/>
      <point x="463" y="232"/>
      <point x="378" y="232" type="curve"/>
      <point x="204" y="232" type="line"/>
      <point x="204" y="465" type="line"/>
    </contour>
  </outline>
</glyph>
<glyph name="ae" format="2">
  <advance width="898"/>
  <unicode hex="00E6"/>
  <anchor x="268" y="501" name="top"/>
  <anchor x="486" y="0" name="bottom"/>
  <outline>
    <contour>
      <point x="226" y="-8" type="curve" smooth="yes"/>
      <point x="308" y="-8"/>
      <point x="373" y="20"/>
      <point x="430" y="83" type="curve"/>
      <point x="476" y="26"/>
      <point x="547" y="-10"/>
      <point x="627" y="-10" type="curve"/>
      <point x="704" y="-10"/>
      <point x="765" y="13"/>
      <point x="826" y="64" type="curve"/>
      <point x="752" y="133" type="line"/>
      <point x="724" y="103"/>
      <point x="680" y="86"/>
      <point x="633" y="86" type="curve"/>
      <point x="556" y="86"/>
      <point x="494" y="144"/>
      <point x="483" y="223" type="curve"/>
      <point x="853" y="223" type="line"/>
      <point x="853" y="251" type="line"/>
      <point x="853" y="400"/>
      <point x="753" y="509"/>
      <point x="616" y="509" type="curve"/>
      <point x="547" y="509"/>
      <point x="487" y="482"/>
      <point x="445" y="434" type="curve"/>
      <point x="413" y="482"/>
      <point x="357" y="509"/>
      <point x="278" y="509" type="curve" smooth="yes"/>
      <point x="211" y="509"/>
      <point x="145" y="493"/>
      <point x="70" y="458" type="curve"/>
      <point x="110" y="376" type="line"/>
      <point x="168" y="403"/>
      <point x="214" y="415"/>
      <point x="256" y="415" type="curve" smooth="yes"/>
      <point x="333" y="415"/>
      <point x="371" y="381"/>
      <point x="371" y="315" type="curve"/>
      <point x="371" y="261" type="line"/>
      <point x="326" y="281"/>
      <point x="283" y="291"/>
      <point x="236" y="291" type="curve" smooth="yes"/>
      <point x="118" y="291"/>
      <point x="46" y="235"/>
      <point x="46" y="145" type="curve" smooth="yes"/>
      <point x="46" y="54"/>
      <point x="119" y="-8"/>
    </contour>
    <contour>
      <point x="615" y="417" type="curve"/>
      <point x="682" y="417"/>
      <point x="733" y="366"/>
      <point x="746" y="292" type="curve"/>
      <point x="485" y="292" type="line"/>
      <point x="498" y="368"/>
      <point x="548" y="417"/>
    </contour>
    <contour>
      <point x="151" y="148" type="curve" smooth="yes"/>
      <point x="151" y="192"/>
      <point x="191" y="220"/>
      <point x="255" y="220" type="curve" smooth="yes"/>
      <point x="301" y="220"/>
      <point x="340" y="212"/>
      <point x="378" y="193" type="curve"/>
      <point x="382" y="174"/>
      <point x="388" y="157"/>
      <point x="395" y="140" type="curve"/>
      <point x="358" y="96"/>
      <point x="309" y="72"/>
      <point x="252" y="72" type="curve" smooth="yes"/>
      <point x="191" y="72"/>
      <point x="151" y="102"/>
    </contour>
  </outline>
</glyph>
<glyph name="ccedilla" format="2">
  <advance width="523"/>
  <unicode hex="00E7"/>
  <outline>
    <contour>
      <point x="307" y="90" type="curve" smooth="yes"/>
      <point x="223" y="90"/>
      <point x="160" y="159"/>
      <point x="160" y="250" type="curve" smooth="yes"/>
      <point x="160" y="340"/>
      <point x="223" y="410"/>
      <point x="304" y="410" type="curve" smooth="yes"/>
      <point x="352" y="410"/>
      <point x="395" y="390"/>
      <point x="430" y="351" type="curve"/>
      <point x="500" y="424" type="line"/>
      <point x="450" y="478"/>
      <point x="378" y="508"/>
      <point x="300" y="508" type="curve"/>
      <point x="157" y="508"/>
      <point x="47" y="395"/>
      <point x="47" y="250" type="curve" smooth="yes"/>
      <point x="47" y="116"/>
      <point x="141" y="9"/>
      <point x="266" y="-8" type="curve"/>
      <point x="242" y="-105" type="line"/>
      <point x="278" y="-105" type="line" smooth="yes"/>
      <point x="319" y="-105"/>
      <point x="343" y="-120"/>
      <point x="343" y="-147" type="curve"/>
      <point x="343" y="-176"/>
      <point x="321" y="-192"/>
      <point x="282" y="-192" type="curve"/>
      <point x="255" y="-192"/>
      <point x="227" y="-182"/>
      <point x="204" y="-164" type="curve"/>
      <point x="167" y="-207" type="line"/>
      <point x="196" y="-233"/>
      <point x="237" y="-246"/>
      <point x="288" y="-246" type="curve"/>
      <point x="358" y="-246"/>
      <point x="408" y="-203"/>
      <point x="408" y="-145" type="curve"/>
      <point x="408" y="-97"/>
      <point x="371" y="-66"/>
      <point x="309" y="-62" type="curve"/>
      <point x="322" y="-9" type="line"/>
      <point x="390" y="-4"/>
      <point x="453" y="28"/>
      <point x="496" y="77" type="curve"/>
      <point x="428" y="145" type="line"/>
      <point x="398" y="109"/>
      <point x="355" y="90"/>
    </contour>
  </outline>
</glyph>
<glyph name="eth" format="2">
  <advance width="593"/>
  <unicode hex="00F0"/>
  <outline>
    <contour>
      <point x="250" y="517" type="line"/>
      <point x="339" y="576" type="line"/>
      <point x="392" y="522"/>
      <point x="426" y="452"/>
      <point x="437" y="375" type="curve"/>
      <point x="408" y="432"/>
      <point x="344" y="471"/>
      <point x="267" y="470" type="curve" smooth="yes"/>
      <point x="144" y="471"/>
      <point x="47" y="369"/>
      <point x="47" y="237" type="curve" smooth="yes"/>
      <point x="47" y="98"/>
      <point x="153" y="-9"/>
      <point x="288" y="-9" type="curve" smooth="yes"/>
      <point x="444" y="-9"/>
      <point x="543" y="113"/>
      <point x="543" y="303" type="curve"/>
      <point x="543" y="434"/>
      <point x="500" y="547"/>
      <point x="421" y="631" type="curve"/>
      <point x="502" y="685" type="line"/>
      <point x="463" y="742" type="line"/>
      <point x="368" y="679" type="line"/>
      <point x="333" y="706"/>
      <point x="293" y="728"/>
      <point x="248" y="746" type="curve"/>
      <point x="195" y="669" type="line"/>
      <point x="227" y="657"/>
      <point x="257" y="641"/>
      <point x="284" y="623" type="curve"/>
      <point x="211" y="575" type="line"/>
    </contour>
    <contour>
      <point x="293" y="87" type="curve" smooth="yes"/>
      <point x="214" y="87"/>
      <point x="153" y="153"/>
      <point x="153" y="236" type="curve" smooth="yes"/>
      <point x="153" y="319"/>
      <point x="214" y="384"/>
      <point x="292" y="384" type="curve" smooth="yes"/>
      <point x="369" y="384"/>
      <point x="429" y="318"/>
      <point x="429" y="236" type="curve" smooth="yes"/>
      <point x="429" y="153"/>
      <point x="369" y="87"/>
    </contour>
  </outline>
</glyph>
<glyph name="oslash" format="2">
  <advance width="598"/>
  <unicode hex="00F8"/>
  <outline>
    <contour>
      <point x="48" y="-5" type="line"/>
      <point x="127" y="-5" type="line"/>
      <point x="158" y="32" type="line"/>
      <point x="198" y="5"/>
      <point x="246" y="-10"/>
      <point x="299" y="-10" type="curve" smooth="yes"/>
      <point x="442" y="-10"/>
      <point x="551" y="102"/>
      <point x="551" y="250" type="curve" smooth="yes"/>
      <point x="551" y="320"/>
      <point x="527" y="382"/>
      <point x="485" y="428" type="curve"/>
      <point x="550" y="506" type="line"/>
      <point x="470" y="506" type="line"/>
      <point x="439" y="468" type="line"/>
      <point x="399" y="494"/>
      <point x="352" y="509"/>
      <point x="299" y="509" type="curve" smooth="yes"/>
      <point x="156" y="509"/>
      <point x="47" y="397"/>
      <point x="47" y="250" type="curve" smooth="yes"/>
      <point x="47" y="181"/>
      <point x="71" y="119"/>
      <point x="112" y="73" type="curve"/>
    </contour>
    <contour>
      <point x="159" y="249" type="curve" smooth="yes"/>
      <point x="159" y="344"/>
      <point x="217" y="412"/>
      <point x="299" y="412" type="curve" smooth="yes"/>
      <point x="327" y="412"/>
      <point x="352" y="404"/>
      <point x="374" y="389" type="curve"/>
      <point x="182" y="157" type="line"/>
      <point x="167" y="182"/>
      <point x="159" y="214"/>
    </contour>
    <contour>
      <point x="299" y="88" type="curve" smooth="yes"/>
      <point x="270" y="88"/>
      <point x="244" y="96"/>
      <point x="223" y="111" type="curve"/>
      <point x="415" y="343" type="line"/>
      <point x="430" y="317"/>
      <point x="439" y="285"/>
      <point x="439" y="249" type="curve" smooth="yes"/>
      <point x="439" y="156"/>
      <point x="381" y="88"/>
    </contour>
  </outline>
</glyph>
<glyph name="thorn" format="2">
  <advance width="610"/>
  <unicode hex="00FE"/>
  <outline>
    <contour>
      <point x="70" y="-202" type="line"/>
      <point x="183" y="-202" type="line"/>
      <point x="183" y="60" type="line"/>
      <point x="219" y="18"/>
      <point x="270" y="-5"/>
      <point x="329" y="-5" type="curve"/>
      <point x="461" y="-5"/>
      <point x="564" y="107"/>
      <point x="564" y="250" type="curve" smooth="yes"/>
      <point x="564" y="392"/>
      <point x="464" y="505"/>
      <point x="337" y="505" type="curve"/>
      <point x="274" y="505"/>
      <point x="218" y="478"/>
      <point x="183" y="432" type="curve"/>
      <point x="183" y="734" type="line"/>
      <point x="70" y="715" type="line"/>
    </contour>
    <contour>
      <point x="303" y="410" type="curve"/>
      <point x="388" y="410"/>
      <point x="452" y="341"/>
      <point x="452" y="250" type="curve" smooth="yes"/>
      <point x="452" y="158"/>
      <point x="389" y="90"/>
      <point x="303" y="90" type="curve"/>
      <point x="255" y="90"/>
      <point x="212" y="110"/>
      <point x="183" y="145" type="curve"/>
      <point x="183" y="354" type="line"/>
      <point x="213" y="391"/>
      <point x="253" y="410"/>
    </contour>
  </outline>
</glyph>
<glyph name="Aogonek" format="2">
  <advance width="697"/>
  <unicode hex="0104"/>
  <outline>
    <contour>
      <point x="6" y="0" type="line"/>
      <point x="131" y="0" type="line"/>
      <point x="203" y="196" type="line"/>
      <point x="491" y="196" type="line"/>
      <point x="562" y="0" type="line"/>
      <point x="623" y="0" type="line"/>
      <point x="557" y="-46"/>
      <point x="529" y="-87"/>
      <point x="529" y="-136" type="curve"/>
      <point x="529" y="-193"/>
      <point x="571" y="-231"/>
      <point x="636" y="-231" type="curve"/>
      <point x="667" y="-231"/>
      <point x="697" y="-223"/>
      <point x="717" y="-210" type="curve"/>
      <point x="701" y="-157" type="line"/>
      <point x="690" y="-165"/>
      <point x="672" y="-169"/>
      <point x="654" y="-169" type="curve"/>
      <point x="618" y="-169"/>
      <point x="595" y="-149"/>
      <point x="595" y="-116" type="curve"/>
      <point x="595" y="-78"/>
      <point x="625" y="-42"/>
      <point x="691" y="0" type="curve"/>
      <point x="420" y="700" type="line"/>
      <point x="281" y="700" type="line"/>
    </contour>
    <contour>
      <point x="238" y="290" type="line"/>
      <point x="348" y="588" type="line"/>
      <point x="456" y="290" type="line"/>
    </contour>
  </outline>
</glyph>
<glyph name="aogonek" format="2">
  <advance width="550"/>
  <unicode hex="0105"/>
  <outline>
    <contour>
      <point x="222" y="-8" type="curve" smooth="yes"/>
      <point x="279" y="-8"/>
      <point x="326" y="10"/>
      <point x="371" y="51" type="curve"/>
      <point x="371" y="0" type="line"/>
      <point x="415" y="0" type="line"/>
      <point x="349" y="-46"/>
      <point x="321" y="-87"/>
      <point x="321" y="-136" type="curve"/>
      <point x="321" y="-193"/>
      <point x="363" y="-231"/>
      <point x="428" y="-231" type="curve"/>
      <point x="459" y="-231"/>
      <point x="489" y="-223"/>
      <point x="509" y="-210" type="curve"/>
      <point x="493" y="-157" type="line"/>
      <point x="482" y="-165"/>
      <point x="464" y="-169"/>
      <point x="446" y="-169" type="curve"/>
      <point x="410" y="-169"/>
      <point x="387" y="-149"/>
      <point x="387" y="-116" type="curve"/>
      <point x="387" y="-78"/>
      <point x="417" y="-42"/>
      <point x="483" y="0" type="curve"/>
      <point x="483" y="327" type="line" smooth="yes"/>
      <point x="483" y="443"/>
      <point x="408" y="509"/>
      <point x="278" y="509" type="curve" smooth="yes"/>
      <point x="211" y="509"/>
      <point x="145" y="493"/>
      <point x="70" y="458" type="curve"/>
      <point x="110" y="376" type="line"/>
      <point x="168" y="403"/>
      <point x="214" y="415"/>
      <point x="256" y="415" type="curve" smooth="yes"/>
      <point x="333" y="415"/>
      <point x="371" y="381"/>
      <point x="371" y="315" type="curve" smooth="yes"/>
      <point x="371" y="260" type="line"/>
      <point x="326" y="281"/>
      <point x="283" y="291"/>
      <point x="236" y="291" type="curve" smooth="yes"/>
      <point x="118" y="291"/>
      <point x="45" y="234"/>
      <point x="45" y="144" type="curve" smooth="yes"/>
      <point x="45" y="54"/>
      <point x="117" y="-8"/>
    </contour>
    <contour>
      <point x="151" y="146" type="curve" smooth="yes"/>
      <point x="151" y="190"/>
      <point x="191" y="218"/>
      <point x="255" y="218" type="curve" smooth="yes"/>
      <point x="299" y="218"/>
      <point x="335" y="211"/>
      <point x="371" y="194" type="curve"/>
      <point x="371" y="112" type="line"/>
      <point x="337" y="84"/>
      <point x="298" y="71"/>
      <point x="253" y="71" type="curve"/>
      <point x="191" y="71"/>
      <point x="151" y="100"/>
    </contour>
  </outline>
</glyph>
<glyph name="Eogonek" format="2">
  <advance width="641"/>
  <unicode hex="0118"/>
  <outline>
    <contour>
      <point x="84" y="0" type="line"/>
      <point x="518" y="0" type="line"/>
      <point x="452" y="-46"/>
      <point x="424" y="-87"/>
      <point x="424" y="-136" type="curve"/>
      <point x="424" y="-193"/>
      <point x="466" y="-231"/>
      <point x="531" y="-231" type="curve"/>
      <point x="562" y="-231"/>
      <point x="592" y="-223"/>
      <point x="612" y="-210" type="curve"/>
      <point x="596" y="-157" type="line"/>
      <point x="585" y="-165"/>
      <point x="567" y="-169"/>
      <point x="549" y="-169" type="curve"/>
      <point x="513" y="-169"/>
      <point x="490" y="-149"/>
      <point x="490" y="-116" type="curve"/>
      <point x="490" y="-78"/>
      <point x="520" y="-42"/>
      <point x="586" y="0" type="curve"/>
      <point x="589" y="0" type="line"/>
      <point x="589" y="102" type="line"/>
      <point x="204" y="102" type="line"/>
      <point x="204" y="303" type="line"/>
      <point x="470" y="303" type="line"/>
      <point x="470" y="403" type="line"/>
      <point x="204" y="403" type="line"/>
      <point x="204" y="598" type="line"/>
      <point x="585" y="598" type="line"/>
      <point x="585" y="700" type="line"/>
      <point x="84" y="700" type="line"/>
    </contour>
  </outline>
</glyph>
<glyph name="eogonek" format="2">
  <advance width="573"/>
  <unicode hex="0119"/>
  <outline>
    <contour>
      <point x="405" y="-210" type="curve"/>
      <point x="389" y="-157" type="line"/>
      <point x="378" y="-165"/>
      <point x="360" y="-169"/>
      <point x="342" y="-169" type="curve"/>
      <point x="306" y="-169"/>
      <point x="283" y="-149"/>
      <point x="283" y="-116" type="curve"/>
      <point x="283" y="-79"/>
      <point x="312" y="-43"/>
      <point x="376" y="-2" type="curve"/>
      <point x="421" y="9"/>
      <point x="461" y="30"/>
      <point x="501" y="64" type="curve"/>
      <point x="427" y="133" type="line"/>
      <point x="399" y="103"/>
      <point x="355" y="86"/>
      <point x="308" y="86" type="curve"/>
      <point x="231" y="86"/>
      <point x="169" y="144"/>
      <point x="158" y="223" type="curve"/>
      <point x="528" y="223" type="line"/>
      <point x="528" y="251" type="line"/>
      <point x="528" y="400"/>
      <point x="428" y="509"/>
      <point x="291" y="509" type="curve"/>
      <point x="152" y="509"/>
      <point x="47" y="397"/>
      <point x="47" y="250" type="curve" smooth="yes"/>
      <point x="47" y="106"/>
      <point x="156" y="-7"/>
      <point x="297" y="-10" type="curve"/>
      <point x="241" y="-52"/>
      <point x="217" y="-90"/>
      <point x="217" y="-136" type="curve"/>
      <point x="217" y="-193"/>
      <point x="259" y="-231"/>
      <point x="324" y="-231" type="curve"/>
      <point x="355" y="-231"/>
      <point x="385" y="-223"/>
    </contour>
    <contour>
      <point x="290" y="417" type="curve"/>
      <point x="357" y="417"/>
      <point x="408" y="366"/>
      <point x="421" y="292" type="curve"/>
      <point x="160" y="292" type="line"/>
      <point x="173" y="368"/>
      <point x="223" y="417"/>
    </contour>
  </outline>
</glyph>
<glyph name="hcircumflex" format="2">
  <advance width="582"/>
  <unicode hex="0125"/>
  <outline>
    <contour>
      <point x="211" y="787" type="line"/>
      <point x="300" y="787" type="line"/>
      <point x="180" y="925" type="line"/>
      <point x="67" y="925" type="line"/>
      <point x="-54" y="787" type="line"/>
      <point x="34" y="787" type="line"/>
      <point x="122" y="873" type="line"/>
    </contour>
    <contour>
      <point x="70" y="0" type="line"/>
      <point x="183" y="0" type="line"/>
      <point x="183" y="358" type="line"/>
      <point x="209" y="397"/>
      <point x="246" y="418"/>
      <point x="292" y="418" type="curve" smooth="yes"/>
      <point x="361" y="418"/>
      <point x="402" y="370"/>
      <point x="402" y="298" type="curve"/>
      <point x="402" y="0" type="line"/>
      <point x="515" y="0" type="line"/>
      <point x="515" y="330" type="line" smooth="yes"/>
      <point x="515" y="435"/>
      <point x="445" y="509"/>
      <point x="342" y="509" type="curve"/>
      <point x="274" y="509"/>
      <point x="220" y="477"/>
      <point x="183" y="419" type="curve"/>
      <point x="183" y="712" type="line"/>
      <point x="70" y="712" type="line"/>
    </contour>
  </outline>
</glyph>
<glyph name="Hbar" format="2">
  <advance width="777"/>
  <unicode hex="0126"/>
  <outline>
    <contour>
      <point x="95" y="0" type="line"/>
      <point x="215" y="0" type="line"/>
      <point x="215" y="302" type="line"/>
      <point x="563" y="302" type="line"/>
      <point x="563" y="0" type="line"/>
      <point x="683" y="0" type="line"/>
      <point x="683" y="512" type="line"/>
      <point x="764" y="512" type="line"/>
      <point x="764" y="595" type="line"/>
      <point x="683" y="595" type="line"/>
      <point x="683" y="700" type="line"/>
      <point x="563" y="700" type="line"/>
      <point x="563" y="595" type="line"/>
      <point x="215" y="595" type="line"/>
      <point x="215" y="700" type="line"/>
      <point x="95" y="700" type="line"/>
      <point x="95" y="595" type="line"/>
      <point x="12" y="595" type="line"/>
      <point x="12" y="512" type="line"/>
      <point x="95" y="512" type="line"/>
    </contour>
    <contour>
      <point x="215" y="403" type="line"/>
      <point x="215" y="512" type="line"/>
      <point x="563" y="512" type="line"/>
      <point x="563" y="403" type="line"/>
    </contour>
  </outline>
</glyph>
<glyph name="hbar" format="2">
  <advance width="590"/>
  <unicode hex="0127"/>
  <outline>
    <contour>
      <point x="78" y="0" type="line"/>
      <point x="191" y="0" type="line"/>
      <point x="191" y="358" type="line"/>
      <point x="218" y="397"/>
      <point x="255" y="418"/>
      <point x="300" y="418" type="curve" smooth="yes"/>
      <point x="367" y="418"/>
      <point x="410" y="371"/>
      <point x="410" y="298" type="curve"/>
      <point x="410" y="0" type="line"/>
      <point x="523" y="0" type="line"/>
      <point x="523" y="330" type="line" smooth="yes"/>
      <point x="523" y="435"/>
      <point x="452" y="509"/>
      <point x="350" y="509" type="curve"/>
      <point x="283" y="509"/>
      <point x="229" y="478"/>
      <point x="191" y="419" type="curve"/>
      <point x="191" y="567" type="line"/>
      <point x="317" y="567" type="line"/>
      <point x="317" y="634" type="line"/>
      <point x="191" y="634" type="line"/>
      <point x="191" y="734" type="line"/>
      <point x="78" y="715" type="line"/>
      <point x="78" y="634" type="line"/>
      <point x="17" y="634" type="line"/>
      <point x="17" y="567" type="line"/>
      <point x="78" y="567" type="line"/>
    </contour>
  </outline>
</glyph>
<glyph name="Iogonek" format="2">
  <advance width="277"/>
  <unicode hex="012E"/>
  <outline>
    <contour>
      <point x="78" y="0" type="line"/>
      <point x="130" y="0" type="line"/>
      <point x="64" y="-46"/>
      <point x="36" y="-87"/>
      <point x="36" y="-136" type="curve"/>
      <point x="36" y="-193"/>
      <point x="78" y="-231"/>
      <point x="143" y="-231" type="curve"/>
      <point x="174" y="-231"/>
      <point x="204" y="-223"/>
      <point x="224" y="-210" type="curve"/>
      <point x="208" y="-157" type="line"/>
      <point x="197" y="-165"/>
      <point x="179" y="-169"/>
      <point x="161" y="-169" type="curve"/>
      <point x="125" y="-169"/>
      <point x="102" y="-149"/>
      <point x="102" y="-116" type="curve"/>
      <point x="102" y="-78"/>
      <point x="132" y="-42"/>
      <point x="198" y="0" type="curve"/>
      <point x="198" y="700" type="line"/>
      <point x="78" y="700" type="line"/>
    </contour>
  </outline>
</glyph>
<glyph name="iogonek" format="2">
  <advance width="252"/>
  <unicode hex="012F"/>
  <outline>
    <contour>
      <point x="126" y="603" type="curve" smooth="yes"/>
      <point x="166" y="603"/>
      <point x="197" y="633"/>
      <point x="197" y="672" type="curve" smooth="yes"/>
      <point x="197" y="710"/>
      <point x="165" y="742"/>
      <point x="126" y="742" type="curve" smooth="yes"/>
      <point x="88" y="742"/>
      <point x="56" y="710"/>
      <point x="56" y="672" type="curve" smooth="yes"/>
      <point x="56" y="633"/>
      <point x="87" y="603"/>
    </contour>
    <contour>
      <point x="183" y="0" type="curve"/>
      <point x="183" y="501" type="line"/>
      <point x="70" y="501" type="line"/>
      <point x="70" y="0" type="line"/>
      <point x="115" y="0" type="line"/>
      <point x="49" y="-46"/>
      <point x="21" y="-87"/>
      <point x="21" y="-136" type="curve"/>
      <point x="21" y="-193"/>
      <point x="63" y="-231"/>
      <point x="128" y="-231" type="curve"/>
      <point x="159" y="-231"/>
      <point x="189" y="-223"/>
      <point x="209" y="-210" type="curve"/>
      <point x="193" y="-157" type="line"/>
      <point x="182" y="-165"/>
      <point x="164" y="-169"/>
      <point x="146" y="-169" type="curve"/>
      <point x="110" y="-169"/>
      <point x="87" y="-149"/>
      <point x="87" y="-116" type="curve"/>
      <point x="87" y="-78"/>
      <point x="117" y="-42"/>
    </contour>
  </outline>
</glyph>
<glyph name="dotlessi" format="2">
  <advance width="252"/>
  <unicode hex="0131"/>
  <anchor x="126" y="501" name="top"/>
  <anchor x="183" y="0" name="bottom"/>
  <outline>
    <contour>
      <point x="183" y="501" type="line"/>
      <point x="70" y="501" type="line"/>
      <point x="70" y="0" type="line"/>
      <point x="183" y="0" type="line"/>
    </contour>
  </outline>
</glyph>
<glyph name="kgreenlandic" format="2">
  <advance width="541"/>
  <unicode hex="0138"/>
  <outline>
    <contour>
      <point x="70" y="0" type="line"/>
      <point x="183" y="0" type="line"/>
      <point x="183" y="231" type="line"/>
      <point x="389" y="0" type="line"/>
      <point x="534" y="0" type="line"/>
      <point x="291" y="269" type="line"/>
      <point x="520" y="501" type="line"/>
      <point x="391" y="501" type="line"/>
      <point x="183" y="287" type="line"/>
      <point x="183" y="501" type="line"/>
      <point x="70" y="501" type="line"/>
    </contour>
  </outline>
</glyph>
<glyph name="lacute" format="2">
  <advance width="252"/>
  <unicode hex="013A"/>
  <outline>
    <contour>
      <point x="183" y="920" type="line"/>
      <point x="59" y="787" type="line"/>
      <point x="158" y="787" type="line"/>
      <point x="324" y="920" type="line"/>
    </contour>
    <contour>
      <point x="70" y="0" type="line"/>
      <point x="183" y="0" type="line"/>
      <point x="183" y="712" type="line"/>
      <point x="70" y="712" type="line"/>
    </contour>
  </outline>
</glyph>
<glyph name="Lslash" format="2">
  <advance width="648"/>
  <unicode hex="0141"/>
  <outline>
    <contour>
      <point x="107" y="0" type="line"/>
      <point x="600" y="0" type="line"/>
      <point x="600" y="104" type="line"/>
      <point x="227" y="104" type="line"/>
      <point x="227" y="310" type="line"/>
      <point x="393" y="423" type="line"/>
      <point x="393" y="527" type="line"/>
      <point x="227" y="414" type="line"/>
      <point x="227" y="700" type="line"/>
      <point x="107" y="700" type="line"/>
      <point x="107" y="333" type="line"/>
      <point x="12" y="268" type="line"/>
      <point x="12" y="164" type="line"/>
      <point x="107" y="229" type="line"/>
    </contour>
  </outline>
</glyph>
<glyph name="lslash" format="2">
  <advance width="299"/>
  <unicode hex="0142"/>
  <outline>
    <contour>
      <point x="1" y="307" type="line"/>
      <point x="1" y="197" type="line"/>
      <point x="95" y="266" type="line"/>
      <point x="95" y="0" type="line"/>
      <point x="208" y="0" type="line"/>
      <point x="208" y="350" type="line"/>
      <point x="299" y="417" type="line"/>
      <point x="299" y="527" type="line"/>
      <point x="208" y="460" type="line"/>
      <point x="208" y="734" type="line"/>
      <point x="95" y="715" type="line"/>
      <point x="95" y="376" type="line"/>
    </contour>
  </outline>
</glyph>
<glyph name="eng" format="2">
  <advance width="582"/>
  <unicode hex="014B"/>
  <outline>
    <contour>
      <point x="70" y="0" type="line"/>
      <point x="183" y="0" type="line"/>
      <point x="183" y="358" type="line"/>
      <point x="210" y="397"/>
      <point x="247" y="418"/>
      <point x="292" y="418" type="curve" smooth="yes"/>
      <point x="359" y="418"/>
      <point x="402" y="371"/>
      <point x="402" y="298" type="curve"/>
      <point x="402" y="-66" type="line"/>
      <point x="402" y="-104"/>
      <point x="386" y="-121"/>
      <point x="347" y="-121" type="curve"/>
      <point x="331" y="-121"/>
      <point x="320" y="-120"/>
      <point x="307" y="-117" type="curve"/>
      <point x="307" y="-209" type="line"/>
      <point x="325" y="-214"/>
      <point x="348" y="-217"/>
      <point x="368" y="-217" type="curve"/>
      <point x="463" y="-217"/>
      <point x="515" y="-165"/>
      <point x="515" y="-73" type="curve"/>
      <point x="515" y="330" type="line" smooth="yes"/>
      <point x="515" y="435"/>
      <point x="444" y="509"/>
      <point x="342" y="509" type="curve"/>
      <point x="275" y="509"/>
      <point x="221" y="478"/>
      <point x="183" y="419" type="curve"/>
      <point x="183" y="501" type="line"/>
      <point x="70" y="501" type="line"/>
    </contour>
  </outline>
</glyph>
<glyph name="OE" format="2">
  <advance width="1067"/>
  <unicode hex="0152"/>
  <outline>
    <contour>
      <point x="400" y="0" type="curve"/>
      <point x="1015" y="0" type="line"/>
      <point x="1015" y="105" type="line"/>
      <point x="625" y="105" type="line"/>
      <point x="677" y="157"/>
      <point x="711" y="226"/>
      <point x="721" y="302" type="curve"/>
      <point x="896" y="302" type="line"/>
      <point x="896" y="404" type="line"/>
      <point x="720" y="404" type="line"/>
      <point x="709" y="478"/>
      <point x="675" y="545"/>
      <point x="624" y="595" type="curve"/>
      <point x="1015" y="595" type="line"/>
      <point x="1015" y="700" type="line"/>
      <point x="400" y="700" type="line"/>
      <point x="200" y="700"/>
      <point x="51" y="550"/>
      <point x="51" y="350" type="curve"/>
      <point x="51" y="150"/>
      <point x="200" y="0"/>
    </contour>
    <contour>
      <point x="390" y="104" type="curve"/>
      <point x="265" y="104"/>
      <point x="170" y="211"/>
      <point x="170" y="350" type="curve"/>
      <point x="170" y="489"/>
      <point x="265" y="596"/>
      <point x="390" y="596" type="curve"/>
      <point x="514" y="596"/>
      <point x="610" y="488"/>
      <point x="610" y="350" type="curve"/>
      <point x="610" y="212"/>
      <point x="514" y="104"/>
    </contour>
  </outline>
</glyph>
<glyph name="oe" format="2">
  <advance width="968"/>
  <unicode hex="0153"/>
  <outline>
    <contour>
      <point x="47" y="250" type="curve" smooth="yes"/>
      <point x="47" y="103"/>
      <point x="156" y="-10"/>
      <point x="299" y="-10" type="curve" smooth="yes"/>
      <point x="381" y="-10"/>
      <point x="452" y="29"/>
      <point x="496" y="92" type="curve"/>
      <point x="542" y="30"/>
      <point x="614" y="-10"/>
      <point x="698" y="-10" type="curve"/>
      <point x="775" y="-10"/>
      <point x="835" y="13"/>
      <point x="896" y="64" type="curve"/>
      <point x="822" y="133" type="line"/>
      <point x="794" y="103"/>
      <point x="750" y="86"/>
      <point x="703" y="86" type="curve"/>
      <point x="626" y="86"/>
      <point x="564" y="144"/>
      <point x="553" y="223" type="curve"/>
      <point x="924" y="223" type="line"/>
      <point x="924" y="251" type="line"/>
      <point x="924" y="400"/>
      <point x="823" y="509"/>
      <point x="686" y="509" type="curve"/>
      <point x="607" y="509"/>
      <point x="538" y="471"/>
      <point x="495" y="410" type="curve"/>
      <point x="451" y="471"/>
      <point x="381" y="509"/>
      <point x="299" y="509" type="curve" smooth="yes"/>
      <point x="156" y="509"/>
      <point x="47" y="397"/>
    </contour>
    <contour>
      <point x="685" y="417" type="curve"/>
      <point x="752" y="417"/>
      <point x="803" y="366"/>
      <point x="816" y="292" type="curve"/>
      <point x="555" y="292" type="line"/>
      <point x="568" y="368"/>
      <point x="618" y="417"/>
    </contour>
    <contour>
      <point x="299" y="88" type="curve" smooth="yes"/>
      <point x="217" y="88"/>
      <point x="159" y="155"/>
      <point x="159" y="249" type="curve" smooth="yes"/>
      <point x="159" y="344"/>
      <point x="217" y="412"/>
      <point x="299" y="412" type="curve" smooth="yes"/>
      <point x="380" y="412"/>
      <point x="440" y="344"/>
      <point x="440" y="249" type="curve" smooth="yes"/>
      <point x="440" y="156"/>
      <point x="381" y="88"/>
    </contour>
  </outline>
</glyph>
<glyph name="Scedilla" format="2">
  <advance width="637"/>
  <unicode hex="015E"/>
  <outline>
    <contour>
      <point x="24" y="103" type="line"/>
      <point x="101" y="38"/>
      <point x="183" y="1"/>
      <point x="275" y="-8" type="curve"/>
      <point x="251" y="-104" type="line"/>
      <point x="287" y="-104" type="line" smooth="yes"/>
      <point x="328" y="-104"/>
      <point x="352" y="-119"/>
      <point x="352" y="-146" type="curve"/>
      <point x="352" y="-175"/>
      <point x="330" y="-191"/>
      <point x="291" y="-191" type="curve"/>
      <point x="264" y="-191"/>
      <point x="236" y="-181"/>
      <point x="213" y="-163" type="curve"/>
      <point x="176" y="-206" type="line"/>
      <point x="205" y="-232"/>
      <point x="246" y="-245"/>
      <point x="297" y="-245" type="curve"/>
      <point x="367" y="-245"/>
      <point x="417" y="-202"/>
      <point x="417" y="-144" type="curve"/>
      <point x="417" y="-96"/>
      <point x="380" y="-65"/>
      <point x="318" y="-61" type="curve"/>
      <point x="330" y="-10" type="line"/>
      <point x="491" y="-5"/>
      <point x="599" y="84"/>
      <point x="599" y="209" type="curve"/>
      <point x="599" y="315"/>
      <point x="533" y="377"/>
      <point x="392" y="401" type="curve" smooth="yes"/>
      <point x="268" y="423" type="line" smooth="yes"/>
      <point x="191" y="435"/>
      <point x="160" y="461"/>
      <point x="160" y="511" type="curve"/>
      <point x="160" y="568"/>
      <point x="215" y="610"/>
      <point x="299" y="610" type="curve"/>
      <point x="377" y="610"/>
      <point x="453" y="583"/>
      <point x="523" y="529" type="curve"/>
      <point x="584" y="619" type="line"/>
      <point x="504" y="678"/>
      <point x="408" y="710"/>
      <point x="303" y="710" type="curve" smooth="yes"/>
      <point x="146" y="710"/>
      <point x="45" y="626"/>
      <point x="45" y="500" type="curve"/>
      <point x="45" y="404"/>
      <point x="104" y="344"/>
      <point x="225" y="322" type="curve" smooth="yes"/>
      <point x="354" y="300" type="line" smooth="yes"/>
      <point x="447" y="283"/>
      <point x="481" y="257"/>
      <point x="481" y="200" type="curve"/>
      <point x="481" y="136"/>
      <point x="417" y="89"/>
      <point x="324" y="89" type="curve"/>
      <point x="244" y="89"/>
      <point x="179" y="117"/>
      <point x="89" y="191" type="curve"/>
    </contour>
  </outline>
</glyph>
<glyph name="scedilla" format="2">
  <advance width="479"/>
  <unicode hex="015F"/>
  <outline>
    <contour>
      <point x="25" y="58" type="line"/>
      <point x="71" y="20"/>
      <point x="135" y="-3"/>
      <point x="208" y="-9" type="curve"/>
      <point x="184" y="-105" type="line"/>
      <point x="220" y="-105" type="line" smooth="yes"/>
      <point x="261" y="-105"/>
      <point x="285" y="-120"/>
      <point x="285" y="-147" type="curve"/>
      <point x="285" y="-176"/>
      <point x="263" y="-192"/>
      <point x="224" y="-192" type="curve"/>
      <point x="197" y="-192"/>
      <point x="169" y="-182"/>
      <point x="146" y="-164" type="curve"/>
      <point x="109" y="-207" type="line"/>
      <point x="138" y="-233"/>
      <point x="179" y="-246"/>
      <point x="230" y="-246" type="curve"/>
      <point x="300" y="-246"/>
      <point x="350" y="-203"/>
      <point x="350" y="-145" type="curve"/>
      <point x="350" y="-97"/>
      <point x="313" y="-66"/>
      <point x="251" y="-62" type="curve"/>
      <point x="264" y="-9" type="line"/>
      <point x="368" y="0"/>
      <point x="445" y="67"/>
      <point x="445" y="153" type="curve" smooth="yes"/>
      <point x="445" y="228"/>
      <point x="397" y="274"/>
      <point x="297" y="293" type="curve" smooth="yes"/>
      <point x="209" y="309" type="line" smooth="yes"/>
      <point x="156" y="318"/>
      <point x="138" y="332"/>
      <point x="138" y="364" type="curve"/>
      <point x="138" y="401"/>
      <point x="172" y="423"/>
      <point x="224" y="423" type="curve"/>
      <point x="275" y="423"/>
      <point x="323" y="408"/>
      <point x="375" y="375" type="curve"/>
      <point x="428" y="449" type="line"/>
      <point x="364" y="490"/>
      <point x="301" y="509"/>
      <point x="231" y="509" type="curve"/>
      <point x="114" y="509"/>
      <point x="37" y="448"/>
      <point x="37" y="354" type="curve" smooth="yes"/>
      <point x="37" y="279"/>
      <point x="85" y="234"/>
      <point x="182" y="216" type="curve" smooth="yes"/>
      <point x="271" y="201" type="line" smooth="yes"/>
      <point x="319" y="192"/>
      <point x="340" y="175"/>
      <point x="340" y="144" type="curve" smooth="yes"/>
      <point x="340" y="104"/>
      <point x="299" y="77"/>
      <point x="239" y="77" type="curve" smooth="yes"/>
      <point x="188" y="77"/>
      <point x="143" y="93"/>
      <point x="78" y="134" type="curve"/>
    </contour>
  </outline>
</glyph>
<glyph name="Tcedilla" format="2">
  <advance width="639"/>
  <unicode hex="0162"/>
  <outline>
    <contour>
      <point x="25" y="596" type="line"/>
      <point x="260" y="596" type="line"/>
      <point x="260" y="0" type="line"/>
      <point x="291" y="0" type="line"/>
      <point x="265" y="-105" type="line"/>
      <point x="301" y="-105" type="line" smooth="yes"/>
      <point x="342" y="-105"/>
      <point x="366" y="-120"/>
      <point x="366" y="-147" type="curve"/>
      <point x="366" y="-176"/>
      <point x="344" y="-192"/>
      <point x="305" y="-192" type="curve"/>
      <point x="278" y="-192"/>
      <point x="250" y="-182"/>
      <point x="227" y="-164" type="curve"/>
      <point x="190" y="-207" type="line"/>
      <point x="219" y="-233"/>
      <point x="260" y="-246"/>
      <point x="311" y="-246" type="curve"/>
      <point x="381" y="-246"/>
      <point x="431" y="-203"/>
      <point x="431" y="-145" type="curve"/>
      <point x="431" y="-97"/>
      <point x="394" y="-66"/>
      <point x="332" y="-62" type="curve"/>
      <point x="347" y="0" type="line"/>
      <point x="380" y="0" type="line"/>
      <point x="380" y="596" type="line"/>
      <point x="613" y="596" type="line"/>
      <point x="613" y="700" type="line"/>
      <point x="25" y="700" type="line"/>
    </contour>
  </outline>
</glyph>
<glyph name="tcedilla" format="2">
  <advance width="414"/>
  <unicode hex="0163"/>
  <outline>
    <contour>
      <point x="132" y="132" type="line"/>
      <point x="132" y="58"/>
      <point x="167" y="12"/>
      <point x="233" y="-3" type="curve"/>
      <point x="208" y="-105" type="line"/>
      <point x="244" y="-105" type="line" smooth="yes"/>
      <point x="285" y="-105"/>
      <point x="309" y="-120"/>
      <point x="309" y="-147" type="curve"/>
      <point x="309" y="-176"/>
      <point x="287" y="-192"/>
      <point x="248" y="-192" type="curve"/>
      <point x="221" y="-192"/>
      <point x="193" y="-182"/>
      <point x="170" y="-164" type="curve"/>
      <point x="133" y="-207" type="line"/>
      <point x="162" y="-233"/>
      <point x="203" y="-246"/>
      <point x="254" y="-246" type="curve"/>
      <point x="324" y="-246"/>
      <point x="374" y="-203"/>
      <point x="374" y="-145" type="curve"/>
      <point x="374" y="-97"/>
      <point x="337" y="-66"/>
      <point x="275" y="-62" type="curve"/>
      <point x="288" y="-8" type="line"/>
      <point x="316" y="-8"/>
      <point x="354" y="-3"/>
      <point x="383" y="6" type="curve"/>
      <point x="383" y="101" type="line"/>
      <point x="353" y="92"/>
      <point x="338" y="89"/>
      <point x="315" y="89" type="curve"/>
      <point x="264" y="89"/>
      <point x="245" y="108"/>
      <point x="245" y="157" type="curve" smooth="yes"/>
      <point x="245" y="411" type="line"/>
      <point x="385" y="411" type="line"/>
      <point x="385" y="501" type="line"/>
      <point x="245" y="501" type="line"/>
      <point x="245" y="663" type="line"/>
      <point x="132" y="639" type="line"/>
      <point x="132" y="501" type="line"/>
      <point x="31" y="501" type="line"/>
      <point x="31" y="411" type="line"/>
      <point x="132" y="411" type="line"/>
    </contour>
  </outline>
</glyph>
<glyph name="Tbar" format="2">
  <advance width="639"/>
  <unicode hex="0166"/>
  <outline>
    <contour>
      <point x="120" y="383" type="line"/>
      <point x="120" y="293" type="line"/>
      <point x="260" y="293" type="line"/>
      <point x="260" y="0" type="line"/>
      <point x="380" y="0" type="line"/>
      <point x="380" y="293" type="line"/>
      <point x="518" y="293" type="line"/>
      <point x="518" y="383" type="line"/>
      <point x="380" y="383" type="line"/>
      <point x="380" y="596" type="line"/>
      <point x="613" y="596" type="line"/>
      <point x="613" y="700" type="line"/>
      <point x="25" y="700" type="line"/>
      <point x="25" y="596" type="line"/>
      <point x="260" y="596" type="line"/>
      <point x="260" y="383" type="line"/>
    </contour>
  </outline>
</glyph>
<glyph name="Uogonek" format="2">
  <advance width="729"/>
  <unicode hex="0172"/>
  <outline>
    <contour>
      <point x="659" y="300" type="curve"/>
      <point x="659" y="700" type="line"/>
      <point x="539" y="700" type="line"/>
      <point x="539" y="300" type="line"/>
      <point x="539" y="177"/>
      <point x="471" y="98"/>
      <point x="365" y="98" type="curve" smooth="yes"/>
      <point x="259" y="98"/>
      <point x="190" y="177"/>
      <point x="190" y="300" type="curve"/>
      <point x="190" y="700" type="line"/>
      <point x="70" y="700" type="line"/>
      <point x="70" y="300" type="line"/>
      <point x="70" y="112"/>
      <point x="180" y="-6"/>
      <point x="355" y="-10" type="curve"/>
      <point x="299" y="-52"/>
      <point x="275" y="-90"/>
      <point x="275" y="-136" type="curve"/>
      <point x="275" y="-193"/>
      <point x="317" y="-231"/>
      <point x="382" y="-231" type="curve"/>
      <point x="413" y="-231"/>
      <point x="443" y="-223"/>
      <point x="463" y="-210" type="curve"/>
      <point x="447" y="-157" type="line"/>
      <point x="436" y="-165"/>
      <point x="418" y="-169"/>
      <point x="400" y="-169" type="curve"/>
      <point x="364" y="-169"/>
      <point x="341" y="-149"/>
      <point x="341" y="-116" type="curve"/>
      <point x="341" y="-79"/>
      <point x="369" y="-44"/>
      <point x="431" y="-4" type="curve"/>
      <point x="572" y="23"/>
      <point x="659" y="136"/>
    </contour>
  </outline>
</glyph>
<glyph name="uogonek" format="2">
  <advance width="582"/>
  <unicode hex="0173"/>
  <outline>
    <contour>
      <point x="512" y="0" type="curve"/>
      <point x="513" y="0" type="line"/>
      <point x="513" y="501" type="line"/>
      <point x="400" y="501" type="line"/>
      <point x="400" y="145" type="line"/>
      <point x="373" y="104"/>
      <point x="336" y="83"/>
      <point x="290" y="83" type="curve" smooth="yes"/>
      <point x="223" y="83"/>
      <point x="180" y="130"/>
      <point x="180" y="203" type="curve"/>
      <point x="180" y="501" type="line"/>
      <point x="67" y="501" type="line"/>
      <point x="67" y="171" type="line" smooth="yes"/>
      <point x="67" y="65"/>
      <point x="138" y="-8"/>
      <point x="240" y="-8" type="curve"/>
      <point x="308" y="-8"/>
      <point x="362" y="24"/>
      <point x="400" y="83" type="curve"/>
      <point x="400" y="0" type="line"/>
      <point x="444" y="0" type="line"/>
      <point x="378" y="-46"/>
      <point x="350" y="-87"/>
      <point x="350" y="-136" type="curve"/>
      <point x="350" y="-193"/>
      <point x="392" y="-231"/>
      <point x="457" y="-231" type="curve"/>
      <point x="488" y="-231"/>
      <point x="518" y="-223"/>
      <point x="538" y="-210" type="curve"/>
      <point x="522" y="-157" type="line"/>
      <point x="511" y="-165"/>
      <point x="493" y="-169"/>
      <point x="475" y="-169" type="curve"/>
      <point x="439" y="-169"/>
      <point x="416" y="-149"/>
      <point x="416" y="-116" type="curve"/>
      <point x="416" y="-78"/>
      <point x="446" y="-42"/>
    </contour>
  </outline>
</glyph>
<glyph name="dotlessj" format="2">
  <advance width="252"/>
  <unicode hex="0237"/>
  <anchor x="126" y="501" name="top"/>
  <outline>
    <contour>
      <point x="-26" y="-210" type="line"/>
      <point x="-11" y="-214"/>
      <point x="14" y="-217"/>
      <point x="35" y="-217" type="curve"/>
      <point x="129" y="-217"/>
      <point x="183" y="-165"/>
      <point x="183" y="-74" type="curve" smooth="yes"/>
      <point x="183" y="501" type="line"/>
      <point x="70" y="501" type="line"/>
      <point x="70" y="-69" type="line" smooth="yes"/>
      <point x="70" y="-107"/>
      <point x="53" y="-123"/>
      <point x="14" y="-123" type="curve"/>
      <point x="-2" y="-123"/>
      <point x="-13" y="-122"/>
      <point x="-26" y="-119" type="curve"/>
    </contour>
  </outline>
</glyph>
<glyph name="caron" format="2">
  <advance width="522"/>
  <unicode hex="02C7"/>
  <anchor x="261" y="501" name="_top"/>
  <outline>
    <contour>
      <point x="175" y="730" type="line"/>
      <point x="84" y="730" type="line"/>
      <point x="205" y="592" type="line"/>
      <point x="318" y="592" type="line"/>
      <point x="438" y="730" type="line"/>
      <point x="350" y="730" type="line"/>
      <point x="263" y="644" type="line"/>
    </contour>
  </outline>
</glyph>
<glyph name="breve" format="2">
  <advance width="522"/>
  <unicode hex="02D8"/>
  <anchor x="261" y="501" name="_top"/>
  <outline>
    <contour>
      <point x="261" y="653" type="curve"/>
      <point x="208" y="653"/>
      <point x="174" y="682"/>
      <point x="158" y="740" type="curve"/>
      <point x="88" y="722" type="line"/>
      <point x="109" y="637"/>
      <point x="171" y="588"/>
      <point x="261" y="588" type="curve"/>
      <point x="350" y="588"/>
      <point x="413" y="637"/>
      <point x="433" y="722" type="curve"/>
      <point x="364" y="740" type="line"/>
      <point x="348" y="683"/>
      <point x="313" y="653"/>
    </contour>
  </outline>
</glyph>
<glyph name="ring" format="2">
  <advance width="522"/>
  <unicode hex="02DA"/>
  <anchor x="261" y="501" name="_top"/>
  <outline>
    <contour>
      <point x="261" y="579" type="curve" smooth="yes"/>
      <point x="327" y="579"/>
      <point x="380" y="631"/>
      <point x="380" y="696" type="curve" smooth="yes"/>
      <point x="380" y="761"/>
      <point x="327" y="812"/>
      <point x="261" y="812" type="curve" smooth="yes"/>
      <point x="194" y="812"/>
      <point x="142" y="761"/>
      <point x="142" y="696" type="curve" smooth="yes"/>
      <point x="142" y="631"/>
      <point x="195" y="579"/>
    </contour>
    <contour>
      <point x="261" y="630" type="curve" smooth="yes"/>
      <point x="224" y="630"/>
      <point x="196" y="658"/>
      <point x="196" y="696" type="curve"/>
      <point x="196" y="733"/>
      <point x="224" y="761"/>
      <point x="261" y="761" type="curve" smooth="yes"/>
      <point x="297" y="761"/>
      <point x="326" y="732"/>
      <point x="326" y="696" type="curve" smooth="yes"/>
      <point x="326" y="659"/>
      <point x="298" y="630"/>
    </contour>
  </outline>
</glyph>
<glyph name="ogonek" format="2">
  <advance width="522"/>
  <unicode hex="02DB"/>
  <anchor x="323" y="0" name="_bottom"/>
  <outline>
    <contour>
      <point x="323" y="0" type="curve"/>
      <point x="284" y="19" type="line"/>
      <point x="197" y="-35"/>
      <point x="161" y="-80"/>
      <point x="161" y="-136" type="curve"/>
      <point x="161" y="-193"/>
      <point x="203" y="-231"/>
      <point x="268" y="-231" type="curve"/>
      <point x="299" y="-231"/>
      <point x="329" y="-223"/>
      <point x="349" y="-210" type="curve"/>
      <point x="333" y="-157" type="line"/>
      <point x="322" y="-165"/>
      <point x="304" y="-169"/>
      <point x="286" y="-169" type="curve"/>
      <point x="250" y="-169"/>
      <point x="227" y="-149"/>
      <point x="227" y="-116" type="curve"/>
      <point x="227" y="-78"/>
      <point x="257" y="-42"/>
    </contour>
  </outline>
</glyph>
<glyph name="tilde" format="2">
  <advance width="522"/>
  <unicode hex="02DC"/>
  <anchor x="259" y="501" name="_top"/>
  <outline>
    <contour>
      <point x="140" y="584" type="line"/>
      <point x="153" y="633"/>
      <point x="166" y="650"/>
      <point x="190" y="650" type="curve"/>
      <point x="229" y="650"/>
      <point x="280" y="590"/>
      <point x="338" y="590" type="curve" smooth="yes"/>
      <point x="391" y="590"/>
      <point x="427" y="632"/>
      <point x="447" y="711" type="curve"/>
      <point x="378" y="726" type="line"/>
      <point x="365" y="677"/>
      <point x="354" y="661"/>
      <point x="333" y="661" type="curve"/>
      <point x="294" y="661"/>
      <point x="243" y="721"/>
      <point x="184" y="721" type="curve" smooth="yes"/>
      <point x="129" y="721"/>
      <point x="91" y="679"/>
      <point x="71" y="599" type="curve"/>
    </contour>
  </outline>
</glyph>
<glyph name="endash" format="2">
  <advance width="557"/>
  <unicode hex="2013"/>
  <outline>
    <contour>
      <point x="57" y="331" type="line"/>
      <point x="57" y="236" type="line"/>
      <point x="500" y="236" type="line"/>
      <point x="500" y="331" type="line"/>
    </contour>
  </outline>
</glyph>
<glyph name="emdash" format="2">
  <advance width="699"/>
  <unicode hex="2014"/>
  <outline>
    <contour>
      <point x="57" y="331" type="line"/>
      <point x="57" y="236" type="line"/>
      <point x="643" y="236" type="line"/>
      <point x="643" y="331" type="line"/>
    </contour>
  </outline>
</glyph>
<glyph name="dagger" format="2">
  <advance width="449"/>
  <unicode hex="2020"/>
  <outline>
    <contour>
      <point x="180" y="0" type="line"/>
      <point x="271" y="0" type="line"/>
      <point x="271" y="427" type="line"/>
      <point x="402" y="427" type="line"/>
      <point x="402" y="507" type="line"/>
      <point x="271" y="507" type="line"/>
      <point x="271" y="700" type="line"/>
      <point x="180" y="700" type="line"/>
      <point x="180" y="507" type="line"/>
      <point x="48" y="507" type="line"/>
      <point x="48" y="427" type="line"/>
      <point x="180" y="427" type="line"/>
    </contour>
  </outline>
</glyph>
<glyph name="guilsinglleft" format="2">
  <advance width="426"/>
  <unicode hex="2039"/>
  <outline>
    <contour>
      <point x="377" y="501" type="line"/>
      <point x="265" y="501" type="line"/>
      <point x="37" y="251" type="line"/>
      <point x="265" y="0" type="line"/>
      <point x="380" y="0" type="line"/>
      <point x="156" y="253" type="line"/>
    </contour>
  </outline>
</glyph>
<glyph name="uni2080" format="2">
  <advance width="357"/>
  <unicode hex="2080"/>
  <outline>
    <contour>
      <point x="179" y="-5" type="curve" smooth="yes"/>
      <point x="269" y="-5"/>
      <point x="330" y="66"/>
      <point x="330" y="176" type="curve"/>
      <point x="330" y="284"/>
      <point x="269" y="356"/>
      <point x="179" y="356" type="curve" smooth="yes"/>
      <point x="89" y="356"/>
      <point x="28" y="284"/>
      <point x="28" y="176" type="curve"/>
      <point x="28" y="66"/>
      <point x="89" y="-5"/>
    </contour>
    <contour>
      <point x="179" y="57" type="curve" smooth="yes"/>
      <point x="129" y="57"/>
      <point x="97" y="101"/>
      <point x="97" y="176" type="curve"/>
      <point x="97" y="249"/>
      <point x="129" y="294"/>
      <point x="179" y="294" type="curve" smooth="yes"/>
      <point x="229" y="294"/>
      <point x="262" y="249"/>
      <point x="262" y="176" type="curve"/>
      <point x="262" y="101"/>
      <point x="229" y="57"/>
    </contour>
  </outline>
</glyph>
<glyph name="uni2082" format="2">
  <advance width="304"/>
  <unicode hex="2082"/>
  <outline>
    <contour>
      <point x="30" y="0" type="line"/>
      <point x="281" y="0" type="line"/>
      <point x="281" y="60" type="line"/>
      <point x="122" y="60" type="line"/>
      <point x="221" y="152" type="line" smooth="yes"/>
      <point x="259" y="188"/>
      <point x="276" y="214"/>
      <point x="276" y="252" type="curve"/>
      <point x="276" y="311"/>
      <point x="226" y="355"/>
      <point x="151" y="355" type="curve" smooth="yes"/>
      <point x="101" y="355"/>
      <point x="57" y="333"/>
      <point x="18" y="298" type="curve"/>
      <point x="58" y="251" type="line"/>
      <point x="95" y="285"/>
      <point x="121" y="294"/>
      <point x="149" y="294" type="curve" smooth="yes"/>
      <point x="183" y="294"/>
      <point x="207" y="273"/>
      <point x="207" y="246" type="curve"/>
      <point x="207" y="226"/>
      <point x="198" y="209"/>
      <point x="173" y="186" type="curve" smooth="yes"/>
      <point x="30" y="52" type="line"/>
    </contour>
  </outline>
</glyph>
<glyph name="uni2083" format="2">
  <advance width="324"/>
  <unicode hex="2083"/>
  <outline>
    <contour>
      <point x="296" y="98" type="curve"/>
      <point x="296" y="139"/>
      <point x="265" y="168"/>
      <point x="217" y="177" type="curve"/>
      <point x="259" y="189"/>
      <point x="287" y="219"/>
      <point x="287" y="256" type="curve"/>
      <point x="287" y="315"/>
      <point x="233" y="356"/>
      <point x="158" y="356" type="curve"/>
      <point x="110" y="356"/>
      <point x="60" y="336"/>
      <point x="25" y="304" type="curve"/>
      <point x="68" y="256" type="line"/>
      <point x="101" y="283"/>
      <point x="125" y="293"/>
      <point x="156" y="293" type="curve"/>
      <point x="191" y="293"/>
      <point x="215" y="274"/>
      <point x="215" y="248" type="curve"/>
      <point x="215" y="219"/>
      <point x="191" y="201"/>
      <point x="156" y="201" type="curve"/>
      <point x="126" y="201" type="line"/>
      <point x="126" y="145" type="line"/>
      <point x="163" y="145" type="line"/>
      <point x="202" y="145"/>
      <point x="225" y="129"/>
      <point x="225" y="102" type="curve"/>
      <point x="225" y="75"/>
      <point x="197" y="56"/>
      <point x="157" y="56" type="curve"/>
      <point x="123" y="56"/>
      <point x="95" y="67"/>
      <point x="62" y="93" type="curve"/>
      <point x="21" y="43" type="line"/>
      <point x="57" y="12"/>
      <point x="105" y="-5"/>
      <point x="157" y="-5" type="curve"/>
      <point x="239" y="-5"/>
      <point x="296" y="38"/>
    </contour>
  </outline>
</glyph>
<glyph name="uni2086" format="2">
  <advance width="336"/>
  <unicode hex="2086"/>
  <outline>
    <contour>
      <point x="180" y="-6" type="curve"/>
      <point x="255" y="-6"/>
      <point x="310" y="44"/>
      <point x="310" y="111" type="curve" smooth="yes"/>
      <point x="310" y="172"/>
      <point x="262" y="214"/>
      <point x="193" y="214" type="curve"/>
      <point x="155" y="214"/>
      <point x="120" y="197"/>
      <point x="97" y="169" type="curve"/>
      <point x="97" y="248"/>
      <point x="131" y="293"/>
      <point x="192" y="293" type="curve"/>
      <point x="214" y="293"/>
      <point x="240" y="285"/>
      <point x="264" y="269" type="curve"/>
      <point x="297" y="325" type="line"/>
      <point x="267" y="345"/>
      <point x="234" y="355"/>
      <point x="198" y="355" type="curve"/>
      <point x="95" y="355"/>
      <point x="27" y="281"/>
      <point x="27" y="169" type="curve" smooth="yes"/>
      <point x="27" y="65"/>
      <point x="89" y="-6"/>
    </contour>
    <contour>
      <point x="176" y="161" type="curve"/>
      <point x="214" y="161"/>
      <point x="241" y="140"/>
      <point x="241" y="109" type="curve" smooth="yes"/>
      <point x="241" y="78"/>
      <point x="214" y="55"/>
      <point x="179" y="55" type="curve"/>
      <point x="141" y="55"/>
      <point x="111" y="83"/>
      <point x="101" y="127" type="curve"/>
      <point x="121" y="149"/>
      <point x="147" y="161"/>
    </contour>
  </outline>
</glyph>
<glyph name="uni2088" format="2">
  <advance width="333"/>
  <unicode hex="2088"/>
  <outline>
    <contour>
      <point x="167" y="-6" type="curve"/>
      <point x="247" y="-6"/>
      <point x="303" y="36"/>
      <point x="303" y="96" type="curve"/>
      <point x="303" y="136"/>
      <point x="273" y="168"/>
      <point x="229" y="180" type="curve"/>
      <point x="267" y="192"/>
      <point x="292" y="222"/>
      <point x="292" y="259" type="curve"/>
      <point x="292" y="313"/>
      <point x="237" y="356"/>
      <point x="166" y="356" type="curve"/>
      <point x="95" y="356"/>
      <point x="40" y="314"/>
      <point x="40" y="259" type="curve"/>
      <point x="40" y="222"/>
      <point x="65" y="192"/>
      <point x="103" y="180" type="curve"/>
      <point x="59" y="168"/>
      <point x="29" y="136"/>
      <point x="29" y="96" type="curve"/>
      <point x="29" y="36"/>
      <point x="86" y="-6"/>
    </contour>
    <contour>
      <point x="167" y="205" type="curve"/>
      <point x="134" y="205"/>
      <point x="109" y="225"/>
      <point x="109" y="252" type="curve"/>
      <point x="109" y="279"/>
      <point x="133" y="299"/>
      <point x="167" y="299" type="curve"/>
      <point x="199" y="299"/>
      <point x="223" y="279"/>
      <point x="223" y="252" type="curve"/>
      <point x="223" y="225"/>
      <point x="198" y="205"/>
    </contour>
    <contour>
      <point x="167" y="52" type="curve"/>
      <point x="128" y="52"/>
      <point x="100" y="73"/>
      <point x="100" y="102" type="curve"/>
      <point x="100" y="132"/>
      <point x="128" y="153"/>
      <point x="167" y="153" type="curve"/>
      <point x="205" y="153"/>
      <point x="232" y="132"/>
      <point x="232" y="102" type="curve"/>
      <point x="232" y="73"/>
      <point x="205" y="52"/>
    </contour>
  </outline>
</glyph>
<glyph name="Euro" format="2">
  <advance width="738"/>
  <unicode hex="20AC"/>
  <outline>
    <contour>
      <point x="230" y="350" type="curve"/>
      <point x="230" y="362"/>
      <point x="230" y="374"/>
      <point x="231" y="385" type="curve"/>
      <point x="473" y="385" type="line"/>
      <point x="496" y="449" type="line"/>
      <point x="242" y="449" type="line"/>
      <point x="270" y="552"/>
      <point x="344" y="617"/>
      <point x="442" y="617" type="curve"/>
      <point x="510" y="617"/>
      <point x="571" y="584"/>
      <point x="612" y="524" type="curve"/>
      <point x="687" y="584" type="line"/>
      <point x="627" y="668"/>
      <point x="543" y="711"/>
      <point x="443" y="711" type="curve" smooth="yes"/>
      <point x="289" y="711"/>
      <point x="172" y="606"/>
      <point x="137" y="449" type="curve"/>
      <point x="42" y="449" type="line"/>
      <point x="42" y="385" type="line"/>
      <point x="128" y="385" type="line"/>
      <point x="127" y="374"/>
      <point x="127" y="362"/>
      <point x="127" y="350" type="curve"/>
      <point x="127" y="338"/>
      <point x="127" y="327"/>
      <point x="128" y="316" type="curve"/>
      <point x="42" y="316" type="line"/>
      <point x="42" y="253" type="line"/>
      <point x="137" y="253" type="line"/>
      <point x="170" y="94"/>
      <point x="287" y="-11"/>
      <point x="441" y="-11" type="curve" smooth="yes"/>
      <point x="541" y="-11"/>
      <point x="625" y="33"/>
      <point x="685" y="117" type="curve"/>
      <point x="612" y="176" type="line"/>
      <point x="572" y="118"/>
      <point x="509" y="84"/>
      <point x="441" y="84" type="curve" smooth="yes"/>
      <point x="343" y="84"/>
      <point x="269" y="149"/>
      <point x="242" y="253" type="curve"/>
      <point x="427" y="253" type="line"/>
      <point x="450" y="316" type="line"/>
      <point x="231" y="316" type="line"/>
      <point x="230" y="327"/>
      <point x="230" y="338"/>
    </contour>
  </outline>
</glyph>
<glyph name="trademark" format="2">
  <advance width="679"/>
  <unicode hex="2122"/>
  <outline>
    <contour>
      <point x="325" y="700" type="line"/>
      <point x="325" y="421" type="line"/>
      <point x="379" y="421" type="line"/>
      <point x="378" y="626" type="line"/>
      <point x="471" y="439" type="line"/>
      <point x="562" y="628" type="line"/>
      <point x="560" y="421" type="line"/>
      <point x="615" y="421" type="line"/>
      <point x="615" y="700" type="line"/>
      <point x="545" y="700" type="line"/>
      <point x="471" y="540" type="line"/>
      <point x="396" y="700" type="line"/>
    </contour>
    <contour>
      <point x="42" y="700" type="line"/>
      <point x="42" y="649" type="line"/>
      <point x="133" y="649" type="line"/>
      <point x="133" y="421" type="line"/>
      <point x="191" y="421" type="line"/>
      <point x="191" y="649" type="line"/>
      <point x="282" y="649" type="line"/>
      <point x="282" y="700" type="line"/>
    </contour>
  </outline>
</glyph>
<glyph name="uni2191" format="2">
  <advance width="575"/>
  <unicode hex="2191"/>
  <outline>
    <contour>
      <point x="233" y="0" type="line"/>
      <point x="339" y="0" type="line"/>
      <point x="339" y="550" type="line"/>
      <point x="490" y="356" type="line"/>
      <point x="558" y="415" type="line"/>
      <point x="287" y="750" type="line"/>
      <point x="14" y="414" type="line"/>
      <point x="82" y="356" type="line"/>
      <point x="233" y="549" type="line"/>
    </contour>
  </outline>
</glyph>
<glyph name="uni2215" format="2">
  <advance width="578"/>
  <unicode hex="2215"/>
  <outline>
    <contour>
      <point x="107" y="0" type="line"/>
      <point x="503" y="700" type="line"/>
      <point x="419" y="700" type="line"/>
      <point x="24" y="0" type="line"/>
    </contour>
  </outline>
</glyph>
<glyph name="notequal" format="2">
  <advance width="543"/>
  <unicode hex="2260"/>
  <outline>
    <contour>
      <point x="68" y="104" type="line"/>
      <point x="154" y="104" type="line"/>
      <point x="228" y="219" type="line"/>
      <point x="482" y="219" type="line"/>
      <point x="482" y="309" type="line"/>
      <point x="285" y="309" type="line"/>
      <point x="343" y="400" type="line"/>
      <point x="482" y="400" type="line"/>
      <point x="482" y="489" type="line"/>
      <point x="400" y="489" type="line"/>
      <point x="474" y="604" type="line"/>
      <point x="389" y="604" type="line"/>
      <point x="315" y="489" type="line"/>
      <point x="62" y="489" type="line"/>
      <point x="62" y="400" type="line"/>
      <point x="258" y="400" type="line"/>
      <point x="200" y="309" type="line"/>
      <point x="62" y="309" type="line"/>
      <point x="62" y="219" type="line"/>
      <point x="142" y="219" type="line"/>
    </contour>
  </outline>
</glyph>
<glyph name="aogonek.school" format="2">
  <advance width="610"/>
  <outline>
    <contour>
      <point x="428" y="0" type="line"/>
      <point x="472" y="0" type="line"/>
      <point x="406" y="-46"/>
      <point x="378" y="-87"/>
      <point x="378" y="-136" type="curve"/>
      <point x="378" y="-193"/>
      <point x="420" y="-231"/>
      <point x="485" y="-231" type="curve"/>
      <point x="516" y="-231"/>
      <point x="546" y="-223"/>
      <point x="566" y="-210" type="curve"/>
      <point x="550" y="-157" type="line"/>
      <point x="539" y="-165"/>
      <point x="521" y="-169"/>
      <point x="503" y="-169" type="curve"/>
      <point x="467" y="-169"/>
      <point x="444" y="-149"/>
      <point x="444" y="-116" type="curve"/>
      <point x="444" y="-78"/>
      <point x="474" y="-42"/>
      <point x="540" y="0" type="curve"/>
      <point x="540" y="501" type="line"/>
      <point x="427" y="501" type="line"/>
      <point x="427" y="439" type="line"/>
      <point x="390" y="481"/>
      <point x="339" y="505"/>
      <point x="281" y="505" type="curve"/>
      <point x="150" y="505"/>
      <point x="47" y="393"/>
      <point x="47" y="250" type="curve" smooth="yes"/>
      <point x="47" y="108"/>
      <point x="147" y="-5"/>
      <point x="274" y="-5" type="curve"/>
      <point x="337" y="-5"/>
      <point x="393" y="22"/>
      <point x="428" y="67" type="curve"/>
    </contour>
    <contour>
      <point x="159" y="250" type="curve" smooth="yes"/>
      <point x="159" y="342"/>
      <point x="222" y="410"/>
      <point x="308" y="410" type="curve"/>
      <point x="355" y="410"/>
      <point x="398" y="390"/>
      <point x="427" y="356" type="curve"/>
      <point x="427" y="145" type="line"/>
      <point x="397" y="109"/>
      <point x="356" y="90"/>
      <point x="308" y="90" type="curve"/>
      <point x="223" y="90"/>
      <point x="159" y="159"/>
    </contour>
  </outline>
</glyph>
<glyph name="commaaccent" format="2">
  <advance width="270"/>
  <anchor x="132" y="0" name="_bottom"/>
  <outline>
    <contour>
      <point x="91" y="-88" type="line"/>
      <point x="35" y="-288" type="line"/>
      <point x="115" y="-288" type="line"/>
      <point x="196" y="-88" type="line"/>
    </contour>
  </outline>
</glyph>
<glyph name="cordinal" format="2">
  <advance width="414"/>
  <outline>
    <contour>
      <point x="237" y="385" type="curve" smooth="yes"/>
      <point x="172" y="385"/>
      <point x="123" y="438"/>
      <point x="123" y="506" type="curve" smooth="yes"/>
      <point x="123" y="574"/>
      <point x="171" y="627"/>
      <point x="235" y="627" type="curve" smooth="yes"/>
      <point x="272" y="627"/>
      <point x="307" y="611"/>
      <point x="335" y="580" type="curve"/>
      <point x="391" y="640" type="line"/>
      <point x="352" y="682"/>
      <point x="294" y="707"/>
      <point x="233" y="707" type="curve"/>
      <point x="120" y="707"/>
      <point x="32" y="619"/>
      <point x="32" y="506" type="curve" smooth="yes"/>
      <point x="32" y="393"/>
      <point x="120" y="305"/>
      <point x="233" y="305" type="curve" smooth="yes"/>
      <point x="292" y="305"/>
      <point x="348" y="330"/>
      <point x="389" y="372" type="curve"/>
      <point x="334" y="430" type="line"/>
      <point x="305" y="400"/>
      <point x="273" y="385"/>
    </contour>
  </outline>
</glyph>
<glyph name="g.alt" format="2">
  <advance width="583"/>
  <anchor x="281" y="500" name="top"/>
  <outline>
    <contour>
      <point x="61" y="322" type="curve" smooth="yes"/>
      <point x="61" y="249"/>
      <point x="108" y="187"/>
      <point x="179" y="157" type="curve"/>
      <point x="119" y="143"/>
      <point x="80" y="108"/>
      <point x="80" y="63" type="curve"/>
      <point x="80" y="25"/>
      <point x="103" y="-3"/>
      <point x="146" y="-20" type="curve"/>
      <point x="74" y="-34"/>
      <point x="33" y="-64"/>
      <point x="33" y="-103" type="curve"/>
      <point x="33" y="-178"/>
      <point x="120" y="-219"/>
      <point x="276" y="-219" type="curve" smooth="yes"/>
      <point x="454" y="-219"/>
      <point x="566" y="-156"/>
      <point x="566" y="-55" type="curve" smooth="yes"/>
      <point x="566" y="12"/>
      <point x="511" y="53"/>
      <point x="416" y="57" type="curve" smooth="yes"/>
      <point x="230" y="65" type="line" smooth="yes"/>
      <point x="193" y="67"/>
      <point x="175" y="78"/>
      <point x="175" y="101" type="curve" smooth="yes"/>
      <point x="175" y="120"/>
      <point x="191" y="136"/>
      <point x="217" y="145" type="curve"/>
      <point x="237" y="140"/>
      <point x="259" y="137"/>
      <point x="282" y="137" type="curve" smooth="yes"/>
      <point x="408" y="137"/>
      <point x="503" y="216"/>
      <point x="503" y="322" type="curve" smooth="yes"/>
      <point x="503" y="361"/>
      <point x="490" y="397"/>
      <point x="467" y="426" type="curve"/>
      <point x="482" y="442"/>
      <point x="505" y="451"/>
      <point x="531" y="451" type="curve" smooth="yes"/>
      <point x="548" y="451"/>
      <point x="564" y="449"/>
      <point x="578" y="444" type="curve"/>
      <point x="578" y="540" type="line"/>
      <point x="568" y="543"/>
      <point x="561" y="544"/>
      <point x="550" y="544" type="curve" smooth="yes"/>
      <point x="499" y="544"/>
      <point x="462" y="512"/>
      <point x="443" y="451" type="curve"/>
      <point x="403" y="487"/>
      <point x="346" y="509"/>
      <point x="282" y="509" type="curve" smooth="yes"/>
      <point x="158" y="509"/>
      <point x="61" y="426"/>
    </contour>
    <contour>
      <point x="395" y="322" type="curve" smooth="yes"/>
      <point x="395" y="261"/>
      <point x="346" y="215"/>
      <point x="282" y="215" type="curve" smooth="yes"/>
      <point x="217" y="215"/>
      <point x="169" y="261"/>
      <point x="169" y="322" type="curve" smooth="yes"/>
      <point x="169" y="382"/>
      <point x="218" y="428"/>
      <point x="282" y="428" type="curve" smooth="yes"/>
      <point x="346" y="428"/>
      <point x="395" y="382"/>
    </contour>
    <contour>
      <point x="136" y="-82" type="curve"/>
      <point x="136" y="-59"/>
      <point x="155" y="-41"/>
      <point x="187" y="-31" type="curve"/>
      <point x="200" y="-33"/>
      <point x="214" y="-34"/>
      <point x="230" y="-35" type="curve" smooth="yes"/>
      <point x="400" y="-41" type="line" smooth="yes"/>
      <point x="436" y="-43"/>
      <point x="453" y="-55"/>
      <point x="453" y="-77" type="curve" smooth="yes"/>
      <point x="453" y="-119"/>
      <point x="383" y="-146"/>
      <point x="272" y="-146" type="curve" smooth="yes"/>
      <point x="184" y="-146"/>
      <point x="136" y="-123"/>
    </contour>
  </outline>
</glyph>
<glyph name="reversequotedblleft" format="2">
  <advance width="429"/>
  <outline>
    <contour>
      <point x="132" y="750" type="line"/>
      <point x="18" y="750" type="line"/>
      <point x="111" y="486" type="line"/>
      <point x="194" y="486" type="line"/>
    </contour>
    <contour>
      <point x="325" y="750" type="line"/>
      <point x="210" y="750" type="line"/>
      <point x="303" y="486" type="line"/>
      <point x="387" y="486" type="line"/>
    </contour>
  </outline>
</glyph>
<glyph name="reversequoteleft" format="2">
  <advance width="234"/>
  <outline>
    <contour>
      <point x="132" y="750" type="line"/>
      <point x="18" y="750" type="line"/>
      <point x="111" y="486" type="line"/>
      <point x="194" y="486" type="line"/>
    </contour>
  </outline>
</glyph>
